<svg xmlns="http://www.w3.org/2000/svg" viewBox="0 0 396 117.96"><defs><style>.cls-1{fill:#4361ee;}.cls-2{fill:#fbfbfb;}.cls-3{fill:#333;}</style></defs><title>logo_horizontal_Artboard 1</title><g id="Shield"><g id="SvgjsG4039"><rect class="cls-1" width="130.53" height="117.96" rx="9.67"/></g><g id="SvgjsG4040"><circle class="cls-2" cx="76.14" cy="67.2" r="1.22"/><path class="cls-2" d="M109.13,58.36H54.4a2.5,2.5,0,0,0-2.5,2.51V96a2.51,2.51,0,0,0,2.5,2.51h54.73A2.52,2.52,0,0,0,111.64,96V60.87A2.51,2.51,0,0,0,109.13,58.36ZM83,81.5,71.58,70.08,72.88,64,79,62.64,90.43,74.06Z"/><path class="cls-2" d="M72.09,56.56V54a2.5,2.5,0,0,1,2.5-2.5H88.94a2.5,2.5,0,0,1,2.5,2.5v2.52H96V54a7.11,7.11,0,0,0-7.1-7.1H74.59a7.11,7.11,0,0,0-7.1,7.1v2.52Z"/><path class="cls-2" d="M51.07,49.29l3.73,7.27h9.45l-3.44-17L74.72,25.64a3.69,3.69,0,0,0-5.22-5.22L55.59,34.33,22.24,27.58l-2.9,2.9L45.85,44.07,32.27,57.64,25.11,56.2l-2.9,2.89,9.15,4.69L36,72.93l2.9-2.9-1.45-7.17Z"/></g><g id="SvgjsG4041"><path class="cls-3" d="M185.6,11.59h1.69L184.61,22h-2.07c.46-5.43,0-7.42-3.13-7.42h-7V55.05c0,1.91,1.46,2.44,5.44,2.83v2c-5.9-.23-12.25-.23-18.14,0v-2c4-.39,5.44-.92,5.44-2.83V14.57H158.9c-3.14,0-3.9,1.23-7,7.42h-2.07l2.76-10.4h1.68a19.26,19.26,0,0,0,6.5.76H179.1A18.91,18.91,0,0,0,185.6,11.59Zm25.94,9.18c3.82,0,6.12,1.84,6.12,4.13s-1.3,3.67-3.37,3.67c-3.52,0-2.9-3.52-6.58-3.52-4.43,0-6.5,5.9-7.11,7.27V55.05c0,1.91,2.14,2.52,4.44,2.83v2a136.38,136.38,0,0,0-15.92,0v-2c2.53-.31,4.59-.92,4.59-2.83V29.11c0-2.6-1.6-3.29-4.59-2.91v-2c5.89-.92,8.34-3.52,9.87-3.52,1.07,0,1.68.69,1.61,1.92L199.45,30C202.05,24.52,205.49,20.77,211.54,20.77Zm15.84-6.43a3.89,3.89,0,0,1-3.83-3.82,3.93,3.93,0,0,1,3.83-3.75,3.87,3.87,0,0,1,3.82,3.75A3.83,3.83,0,0,1,227.38,14.34Zm4.13,40.71c0,1.91,2.06,2.52,4.51,2.83v2c-5.35-.23-10.63-.23-16,0v-2c2.53-.31,4.52-.92,4.52-2.83V28.57c0-2.52-1.61-3.21-4.6-3.06v-2c6.05-.84,8.5-2.83,10-2.83,1.15,0,2,.46,2,1.84,0,2-.46,4.74-.46,9.49Zm28.84-34.13c8.42,0,15.69,7.12,15.69,20,0,12.62-8.27,19.82-16.84,19.82a13,13,0,0,1-9.79-4.13V67.52c0,2.52,1.53,3.29,5.28,2.9v2.07c-6.58,1-10.18,3.82-12.55,3.82-1,0-1.6-.45-1.6-1.22,0-1.61,1.91-1.07,1.91-6.66V29c0-2.6-1.61-3.29-4.59-2.9v-2c5.89-.92,8.49-3.45,10.1-3.45.91,0,1.45.62,1.45,1.84v3.52a14.49,14.49,0,0,1,10.94-5.13Zm-1.22,37.72c6.5,0,9.41-5,9.41-15.84,0-11.09-2.91-19.66-9.72-19.66-4.13,0-7.65,3-9.41,5.51v20.5C249.49,53.13,253.85,58.64,259.13,58.64Zm47.74-9c0,6.43-6.05,11.1-11.55,11.1-4.9,0-7.43-2.6-9.95-2.6a2,2,0,0,0-2.07,1.68h-1.91l-.84-10.18h.84c.92,0,1.76.08,1.91,1,1.07,4.36,7.35,8,11.4,8a5.72,5.72,0,0,0,6.05-6c0-4.52-3.9-6.35-9.8-9.49-5.58-2.91-10.32-6.43-10.32-12.39,0-5.28,4.51-9.8,10.94-9.8,4.74,0,6.42,2.14,8.57,2.14A1.91,1.91,0,0,0,302,21.53h1.91l.69,9.64h-.92a1.4,1.4,0,0,1-1.6-1.07c-2.07-4.05-6.2-7.26-9.87-7.26a5.51,5.51,0,0,0-5.74,5.81c0,3.75,2.6,5.58,7.35,8s13.08,5.89,13.08,12.93Zm23,7.88a9.85,9.85,0,0,1-7,2.91c-5.12,0-8.87-2.52-8.87-9.64V23.83h-3.44a.64.64,0,0,1-.69-.69v-.92a.69.69,0,0,1,.69-.69c4.74,0,6.73-3.29,7.72-10.4h2.76v10.4h8.26a.69.69,0,0,1,.69.69v.92a.65.65,0,0,1-.69.69H321.1V52.21c0,2.76.76,5.36,3.9,5.36a6.06,6.06,0,0,0,4.9-2.75Zm32.28-5.81c.54,0,.85.53.54,1.3-1.76,4.13-5.89,7.65-12.55,7.65-10,0-17.9-7-17.9-19.89,0-12.55,8.11-19.82,17.06-19.82,8,0,15.15,5.59,15.15,16,0,2.53-.92,4.06-3.44,4.06h-21c.08,10.94,4.36,17.44,11,17.44,3.75,0,6.66-1.68,8.65-5.58.3-.69.53-1.15,1.3-1.15Zm-4.59-12.85c0-9.87-2.45-15.84-8.18-15.84-5.89,0-9.26,6-9.34,15.84Zm32.29-18.06c3.82,0,6.12,1.84,6.12,4.13s-1.3,3.67-3.37,3.67c-3.52,0-2.9-3.52-6.58-3.52-4.43,0-6.5,5.9-7.11,7.27V55.05c0,1.91,2.14,2.52,4.44,2.83v2a136.38,136.38,0,0,0-15.92,0v-2c2.53-.31,4.59-.92,4.59-2.83V29.11c0-2.6-1.6-3.29-4.59-2.91v-2c5.89-.92,8.34-3.52,9.87-3.52,1.07,0,1.69.69,1.61,1.92L377.79,30c2.6-5.43,6-9.18,12.09-9.18Z"/></g><g id="SvgjsG4042"><path class="cls-3" d="M149.87,91.62l2-.33v2.6h3.06v1.66h-3.06v3.5a2.53,2.53,0,0,0,.33,1.48,1.31,1.31,0,0,0,1.12.45,3.5,3.5,0,0,0,1-.12,4.52,4.52,0,0,0,.67-.21l.33,1.58a6.44,6.44,0,0,1-.91.3,4.65,4.65,0,0,1-1.31.16,4,4,0,0,1-1.54-.25,2.25,2.25,0,0,1-1-.71,2.9,2.9,0,0,1-.51-1.14,6.92,6.92,0,0,1-.15-1.52Zm15.88,4.06c-.16-.05-.39-.11-.68-.17a5.05,5.05,0,0,0-1-.09,4.32,4.32,0,0,0-.7.06l-.52.12v6.89h-2V94.3a10.15,10.15,0,0,1,1.44-.4,8.64,8.64,0,0,1,1.91-.19l.46,0,.53.07a3.84,3.84,0,0,1,.51.1,3.29,3.29,0,0,1,.4.1Zm8.75,5.41a7,7,0,0,0,1.4-.1v-2.2a4,4,0,0,0-.47-.1,4.9,4.9,0,0,0-.7,0,5,5,0,0,0-.66,0,1.89,1.89,0,0,0-.61.18,1.14,1.14,0,0,0-.44.37,1,1,0,0,0-.16.6,1.07,1.07,0,0,0,.44,1A2.32,2.32,0,0,0,174.5,101.09Zm-.16-7.42a5,5,0,0,1,1.66.25,2.79,2.79,0,0,1,1.08.69,2.55,2.55,0,0,1,.57,1.08,5,5,0,0,1,.18,1.39v5.21c-.31.07-.77.15-1.39.24a13.35,13.35,0,0,1-2.1.14,6.1,6.1,0,0,1-1.41-.15,2.82,2.82,0,0,1-1.1-.47,2.3,2.3,0,0,1-.71-.86,3,3,0,0,1-.25-1.3,2.43,2.43,0,0,1,.29-1.25,2.38,2.38,0,0,1,.78-.83,3.41,3.41,0,0,1,1.14-.46,6.67,6.67,0,0,1,1.36-.14,5.53,5.53,0,0,1,.69,0c.24,0,.5.08.77.14v-.33a2.39,2.39,0,0,0-.08-.66,1.33,1.33,0,0,0-.83-.92,2.58,2.58,0,0,0-.85-.13,7,7,0,0,0-1.26.1,5.61,5.61,0,0,0-.94.23l-.25-1.61a6.66,6.66,0,0,1,1.1-.26A8.51,8.51,0,0,1,174.34,93.67Zm12.13,8.82c-.55-1.13-1.11-2.42-1.69-3.89a47.24,47.24,0,0,1-1.57-4.71h2.12c.12.48.26,1,.42,1.55s.33,1.11.51,1.66.37,1.1.56,1.62.37,1,.53,1.4c.17-.41.34-.88.53-1.4s.37-1.06.55-1.62.36-1.1.52-1.66.31-1.07.43-1.55h2.05a47.24,47.24,0,0,1-1.57,4.71c-.57,1.47-1.13,2.76-1.68,3.89Zm10-4.26a5.5,5.5,0,0,1,.33-2,4.32,4.32,0,0,1,.9-1.42A3.66,3.66,0,0,1,199,94a4.07,4.07,0,0,1,1.49-.29,3.54,3.54,0,0,1,2.77,1.11,4.78,4.78,0,0,1,1,3.29c0,.11,0,.23,0,.37s0,.26,0,.37h-5.68a2.26,2.26,0,0,0,.74,1.6,2.76,2.76,0,0,0,1.88.57,6.71,6.71,0,0,0,1.32-.13,5.6,5.6,0,0,0,.95-.28l.26,1.63a4,4,0,0,1-.45.17,6.42,6.42,0,0,1-.66.16c-.24,0-.51.09-.8.13a8.14,8.14,0,0,1-.87,0,5.38,5.38,0,0,1-2-.34,3.72,3.72,0,0,1-1.38-.94,3.8,3.8,0,0,1-.81-1.41A6,6,0,0,1,196.44,98.23Zm5.77-.89a2.88,2.88,0,0,0-.11-.78,1.87,1.87,0,0,0-.34-.64,1.74,1.74,0,0,0-.54-.43,1.82,1.82,0,0,0-.77-.15,1.69,1.69,0,0,0-.8.17,1.75,1.75,0,0,0-.59.45,2.14,2.14,0,0,0-.37.64,3.2,3.2,0,0,0-.18.74Zm11.09,5.32a5.38,5.38,0,0,1-1.47-.2,2.2,2.2,0,0,1-.93-.52,1.86,1.86,0,0,1-.49-.84,4.34,4.34,0,0,1-.14-1.14V90.05l2-.32v9.85a2.73,2.73,0,0,0,0,.61,1,1,0,0,0,.21.42,1,1,0,0,0,.4.26,3,3,0,0,0,.65.14Zm16.72,0a5.38,5.38,0,0,1-1.47-.2,2.2,2.2,0,0,1-.93-.52,1.86,1.86,0,0,1-.49-.84A4.34,4.34,0,0,1,227,100V90.05l2-.32v9.85a2.68,2.68,0,0,0,.06.61,1,1,0,0,0,.21.42,1,1,0,0,0,.4.26,3,3,0,0,0,.65.14Zm7.9-.17h-2v-8.6h2Zm.21-11.12a1.15,1.15,0,0,1-.36.89,1.3,1.3,0,0,1-1.73,0,1.29,1.29,0,0,1,0-1.79,1.3,1.3,0,0,1,1.73,0A1.16,1.16,0,0,1,238.13,91.37Zm8.31,5.87.81-.84.84-.91.78-.87c.24-.28.46-.52.63-.73h2.35c-.54.61-1.12,1.25-1.73,1.91s-1.22,1.3-1.84,1.92a11.84,11.84,0,0,1,1,1c.36.39.71.8,1.05,1.24s.66.88,1,1.31.54.85.74,1.22h-2.31c-.19-.34-.42-.69-.68-1.07s-.53-.73-.83-1.08-.6-.69-.9-1a8,8,0,0,0-.91-.8v3.95h-2V90.05l2-.32Zm10.6,1a5.5,5.5,0,0,1,.33-2,4.32,4.32,0,0,1,.9-1.42,3.66,3.66,0,0,1,1.28-.86,4.07,4.07,0,0,1,1.49-.29,3.54,3.54,0,0,1,2.77,1.11,4.78,4.78,0,0,1,1,3.29c0,.11,0,.23,0,.37s0,.26,0,.37h-5.68a2.26,2.26,0,0,0,.74,1.6,2.76,2.76,0,0,0,1.88.57,6.71,6.71,0,0,0,1.32-.13,5.6,5.6,0,0,0,1-.28l.26,1.63a4,4,0,0,1-.45.17,6.42,6.42,0,0,1-.66.16c-.24,0-.51.09-.8.13a8.14,8.14,0,0,1-.87,0,5.38,5.38,0,0,1-2-.34,3.72,3.72,0,0,1-1.38-.94,3.94,3.94,0,0,1-.81-1.41,6,6,0,0,1-.26-1.79Zm5.77-.89a2.88,2.88,0,0,0-.11-.78,1.87,1.87,0,0,0-.34-.64,1.74,1.74,0,0,0-.54-.43,1.82,1.82,0,0,0-.77-.15,1.69,1.69,0,0,0-.8.17,1.75,1.75,0,0,0-.59.45,2.14,2.14,0,0,0-.37.64,3.2,3.2,0,0,0-.18.74Zm19,3.75a7.11,7.11,0,0,0,1.4-.1v-2.2a3.84,3.84,0,0,0-.48-.1,4.86,4.86,0,0,0-.69,0,5.16,5.16,0,0,0-.67,0,2,2,0,0,0-.61.18,1.11,1.11,0,0,0-.43.37,1,1,0,0,0-.17.6,1.05,1.05,0,0,0,.45,1A2.27,2.27,0,0,0,281.77,101.09Zm-.17-7.42a5,5,0,0,1,1.66.25,2.79,2.79,0,0,1,1.08.69,2.69,2.69,0,0,1,.58,1.08,5.46,5.46,0,0,1,.17,1.39v5.21c-.31.07-.77.15-1.39.24a13.35,13.35,0,0,1-2.1.14,6.22,6.22,0,0,1-1.41-.15,2.89,2.89,0,0,1-1.1-.47,2.28,2.28,0,0,1-.7-.86,3,3,0,0,1-.26-1.3,2.54,2.54,0,0,1,.29-1.25,2.38,2.38,0,0,1,.78-.83,3.41,3.41,0,0,1,1.14-.46,6.75,6.75,0,0,1,1.36-.14,5.53,5.53,0,0,1,.69,0c.24,0,.5.08.78.14v-.33a2.39,2.39,0,0,0-.09-.66,1.44,1.44,0,0,0-.28-.55,1.37,1.37,0,0,0-.55-.37,2.47,2.47,0,0,0-.84-.13,7,7,0,0,0-1.27.1,5.61,5.61,0,0,0-.94.23L279,94.07a6.83,6.83,0,0,1,1.11-.26,8.32,8.32,0,0,1,1.54-.14Zm17.76,8.82V90.05l2-.32V94a4.39,4.39,0,0,1,.76-.2,4.27,4.27,0,0,1,.87-.08,4.52,4.52,0,0,1,1.72.28,2.84,2.84,0,0,1,1.09.81,3.16,3.16,0,0,1,.58,1.24,6.75,6.75,0,0,1,.18,1.62v4.83h-2V98a6.67,6.67,0,0,0-.09-1.18,2.21,2.21,0,0,0-.3-.79,1.19,1.19,0,0,0-.55-.44,2.18,2.18,0,0,0-.86-.14,4.43,4.43,0,0,0-.8.08,3.57,3.57,0,0,0-.61.15v6.84Zm15.58,0h-2v-8.6h2Zm.21-11.12a1.15,1.15,0,0,1-.36.89,1.3,1.3,0,0,1-1.73,0,1.29,1.29,0,0,1,0-1.79,1.3,1.3,0,0,1,1.73,0A1.16,1.16,0,0,1,315.15,91.37Zm12,6.86a3.19,3.19,0,0,0-.6-2.07,2.33,2.33,0,0,0-1.93-.74l-.59,0a3.16,3.16,0,0,0-.6.11v4.92a3.52,3.52,0,0,0,.7.34,2.83,2.83,0,0,0,.93.15,1.78,1.78,0,0,0,1.59-.74A3.53,3.53,0,0,0,327.18,98.23Zm2,0A6.09,6.09,0,0,1,329,100a4.1,4.1,0,0,1-.73,1.41,3.18,3.18,0,0,1-1.19.92,3.84,3.84,0,0,1-1.62.33,3.94,3.94,0,0,1-1.12-.15,3.79,3.79,0,0,1-.84-.32v3.34h-2V94.17c.41-.11.91-.22,1.5-.32a12.45,12.45,0,0,1,1.87-.14,5,5,0,0,1,1.83.31,3.8,3.8,0,0,1,1.37.9,4.06,4.06,0,0,1,.88,1.41A5.47,5.47,0,0,1,329.22,98.2Zm8.21,2.86a2.54,2.54,0,0,0,1.15-.19.66.66,0,0,0,.36-.65.85.85,0,0,0-.38-.71,5.76,5.76,0,0,0-1.28-.6q-.54-.21-1-.42a3.21,3.21,0,0,1-.78-.52,2.08,2.08,0,0,1-.52-.72,2.43,2.43,0,0,1-.19-1,2.22,2.22,0,0,1,.87-1.86,3.71,3.71,0,0,1,2.37-.69,7.59,7.59,0,0,1,1.45.14,7.32,7.32,0,0,1,1,.28l-.36,1.61a5.15,5.15,0,0,0-2-.4,2,2,0,0,0-1,.21.68.68,0,0,0-.38.63.92.92,0,0,0,.08.38.77.77,0,0,0,.25.3,2.1,2.1,0,0,0,.48.28,6.69,6.69,0,0,0,.72.29,12.2,12.2,0,0,1,1.2.52,3.24,3.24,0,0,1,.82.58,2,2,0,0,1,.47.73,2.88,2.88,0,0,1,.14,1,2.11,2.11,0,0,1-.91,1.86,4.57,4.57,0,0,1-2.61.64,7.4,7.4,0,0,1-1.82-.19,8.8,8.8,0,0,1-1-.31l.34-1.66a9.41,9.41,0,0,0,1.06.35,5.52,5.52,0,0,0,1.41.16Zm9.26-9.44,2-.33v2.6h3.06v1.66h-3.06v3.5a2.53,2.53,0,0,0,.33,1.48,1.31,1.31,0,0,0,1.12.45,3.45,3.45,0,0,0,1-.12,4.52,4.52,0,0,0,.67-.21l.33,1.58a6.71,6.71,0,0,1-.9.3,4.77,4.77,0,0,1-1.32.16,4.07,4.07,0,0,1-1.54-.25,2.25,2.25,0,0,1-1-.71,2.9,2.9,0,0,1-.51-1.14,6.92,6.92,0,0,1-.15-1.52V91.62Zm10.5,6.61a5.28,5.28,0,0,1,.34-2,4,4,0,0,1,.9-1.42,3.66,3.66,0,0,1,1.28-.86,4,4,0,0,1,1.48-.29A3.53,3.53,0,0,1,364,94.78a4.73,4.73,0,0,1,1,3.29c0,.11,0,.23,0,.37s0,.26,0,.37h-5.67a2.26,2.26,0,0,0,.73,1.6,2.76,2.76,0,0,0,1.88.57,6.74,6.74,0,0,0,1.33-.13,5.45,5.45,0,0,0,.94-.28l.27,1.63a4,4,0,0,1-.45.17c-.2.06-.42.11-.66.16l-.8.13a8.46,8.46,0,0,1-.87,0,5.4,5.4,0,0,1-2-.34,3.72,3.72,0,0,1-1.38-.94,3.78,3.78,0,0,1-.8-1.41,5.69,5.69,0,0,1-.27-1.79Zm5.78-.89a2.54,2.54,0,0,0-.12-.78,1.87,1.87,0,0,0-.34-.64,1.63,1.63,0,0,0-.54-.43,1.78,1.78,0,0,0-.76-.15,1.73,1.73,0,0,0-.81.17,1.62,1.62,0,0,0-.58.45,2,2,0,0,0-.37.64,3.83,3.83,0,0,0-.19.74Zm13-1.66c-.16-.05-.39-.11-.68-.17a5.05,5.05,0,0,0-1-.09,4.41,4.41,0,0,0-.7.06l-.52.12v6.89h-2V94.3a11,11,0,0,1,1.44-.4,8.8,8.8,0,0,1,1.92-.19l.46,0,.53.07a4.59,4.59,0,0,1,.51.1,3.59,3.59,0,0,1,.39.1Z"/></g></g></svg>