<svg xmlns="http://www.w3.org/2000/svg" viewBox="0 0 327.99 261.36"><defs><style>.cls-1{fill:#4361ee;}.cls-2{fill:#fbfbfb;}.cls-3{fill:#333;}</style></defs><title>logo_horizontal_Artboard 1</title><g id="Shield"><g id="SvgjsG2216"><rect class="cls-1" x="79.66" width="168.68" height="149.94" rx="9.37"/></g><g id="SvgjsG2217"><circle class="cls-2" cx="179.14" cy="86.78" r="1.74"/><path class="cls-2" d="M226,74.21H148.24a3.56,3.56,0,0,0-3.56,3.56v49.88a3.56,3.56,0,0,0,3.56,3.57H226a3.56,3.56,0,0,0,3.56-3.57V77.77A3.56,3.56,0,0,0,226,74.21ZM188.89,107.1,172.65,90.86l1.86-8.71,8.71-1.85,16.24,16.23Z"/><path class="cls-2" d="M173.38,71.66V68.07a3.56,3.56,0,0,1,3.56-3.56h20.39a3.56,3.56,0,0,1,3.56,3.56v3.59h6.53V68.07A10.1,10.1,0,0,0,197.33,58H176.94a10.11,10.11,0,0,0-10.09,10.09v3.59Z"/><path class="cls-2" d="M143.5,61.31l5.3,10.35h13.44l-4.89-24.19L177.12,27.7a5.25,5.25,0,0,0-7.42-7.42L149.93,40.05l-47.41-9.59L98.4,34.58l37.68,19.31-19.29,19.3L106.6,71.13l-4.12,4.12,13,6.67,6.66,13,4.13-4.12L124.2,80.61Z"/></g><g id="SvgjsG2218"><path class="cls-3" d="M47.61,175.11h2.25L46.29,189H43.54c.61-7.24,0-9.89-4.18-9.89H30.08V233c0,2.55,1.93,3.26,7.24,3.77v2.65c-7.85-.31-16.32-.31-24.17,0v-2.65c5.3-.51,7.24-1.22,7.24-3.77V179.08H12c-4.18,0-5.2,1.63-9.28,9.89H0l3.67-13.86H5.91c2.55.71,3.88,1,8.67,1H39C43.74,176.12,45.17,175.82,47.61,175.11Zm34.57,12.23c5.09,0,8.15,2.45,8.15,5.51,0,2.85-1.73,4.89-4.48,4.89-4.69,0-3.88-4.69-8.77-4.69-5.91,0-8.67,7.85-9.48,9.69V233c0,2.55,2.85,3.36,5.91,3.77v2.65a183,183,0,0,0-21.21,0v-2.65c3.37-.41,6.12-1.22,6.12-3.77V198.45c0-3.46-2.14-4.38-6.12-3.87v-2.65c7.85-1.23,11.12-4.69,13.16-4.69,1.42,0,2.24.92,2.14,2.55l-1.53,9.78C69.53,192.34,74.12,187.34,82.18,187.34Zm21.1-8.56a5.19,5.19,0,0,1-5.1-5.1,5.24,5.24,0,0,1,5.1-5,5.05,5.05,0,1,1,0,10.1ZM108.79,233c0,2.55,2.75,3.36,6,3.77v2.65c-7.13-.31-14.17-.31-21.31,0v-2.65c3.37-.41,6-1.22,6-3.77V197.74c0-3.37-2.14-4.28-6.12-4.08V191c8.06-1.12,11.32-3.77,13.36-3.77,1.53,0,2.65.61,2.65,2.44,0,2.66-.61,6.33-.61,12.65Zm38.43-45.48c11.22,0,20.91,9.49,20.91,26.61,0,16.83-11,26.41-22.43,26.41a17.24,17.24,0,0,1-13.06-5.5v14.58c0,3.36,2,4.38,7,3.87v2.75c-8.77,1.33-13.56,5.1-16.72,5.1-1.33,0-2.14-.61-2.14-1.63,0-2.14,2.55-1.43,2.55-8.87V198.35c0-3.47-2.14-4.38-6.12-3.87v-2.65c7.85-1.23,11.32-4.59,13.46-4.59,1.22,0,1.93.81,1.93,2.44v4.69a19.31,19.31,0,0,1,14.58-6.83Zm-1.63,50.27c8.67,0,12.54-6.63,12.54-21.11,0-14.78-3.87-26.2-12.94-26.2-5.51,0-10.2,4-12.55,7.34v27.33C132.75,230.47,138.56,237.81,145.59,237.81Zm63.62-12c0,8.56-8.05,14.78-15.39,14.78-6.53,0-9.89-3.47-13.26-3.47a2.6,2.6,0,0,0-2.75,2.25h-2.55l-1.12-13.56h1.12c1.23,0,2.35.1,2.55,1.32,1.43,5.81,9.79,10.61,15.19,10.61a7.63,7.63,0,0,0,8.06-8c0-6-5.2-8.46-13.05-12.64-7.45-3.87-13.77-8.56-13.77-16.52,0-7,6-13.05,14.58-13.05,6.32,0,8.57,2.86,11.42,2.86a2.57,2.57,0,0,0,2.45-2h2.55l.92,12.85h-1.23a1.88,1.88,0,0,1-2.14-1.43c-2.75-5.41-8.26-9.69-13.15-9.69s-7.65,3.67-7.65,7.75c0,5,3.47,7.44,9.79,10.71,6.52,3.36,17.43,7.85,17.43,17.23Zm30.69,10.5a13.14,13.14,0,0,1-9.28,3.87c-6.83,0-11.82-3.36-11.82-12.84V191.42h-4.59a.86.86,0,0,1-.92-.92v-1.22a.92.92,0,0,1,.92-.92c6.32,0,9-4.38,10.3-13.87h3.67v13.87h11a.92.92,0,0,1,.92.92v1.22a.86.86,0,0,1-.92.92h-11v37.82c0,3.67,1,7.14,5.2,7.14a8,8,0,0,0,6.52-3.67Zm43-7.75c.71,0,1.12.71.71,1.73-2.34,5.51-7.85,10.2-16.72,10.2-13.36,0-23.86-9.28-23.86-26.51,0-16.72,10.81-26.41,22.74-26.41,10.7,0,20.19,7.45,20.19,21.31,0,3.37-1.23,5.41-4.59,5.41H253.46c.1,14.58,5.81,23.24,14.68,23.24,5,0,8.87-2.24,11.53-7.44.4-.92.71-1.53,1.73-1.53Zm-6.12-17.13c0-13.15-3.26-21.1-10.91-21.1-7.85,0-12.34,8-12.44,21.1Zm43-24.06c5.09,0,8.15,2.45,8.15,5.51,0,2.85-1.73,4.89-4.48,4.89-4.69,0-3.88-4.69-8.77-4.69-5.92,0-8.67,7.85-9.48,9.69V233c0,2.55,2.85,3.36,5.91,3.77v2.65a183,183,0,0,0-21.21,0v-2.65c3.37-.41,6.12-1.22,6.12-3.77V198.45c0-3.46-2.14-4.38-6.12-3.87v-2.65c7.85-1.23,11.12-4.69,13.16-4.69,1.42,0,2.24.92,2.14,2.55l-1.53,9.78c3.46-7.23,8-12.23,16.11-12.23Z"/></g></g></svg>