<svg xmlns="http://www.w3.org/2000/svg" viewBox="0 0 790.47 261.36"><defs><style>.cls-1{fill:#4361ee;}.cls-2{fill:#fbfbfb;}.cls-3{fill:#333;}</style></defs><title>logo_horizontal_Artboard 1</title><g id="Shield"><g id="SvgjsG2216"><rect class="cls-1" x="79.66" width="168.68" height="149.94" rx="9.37"/></g><g id="SvgjsG2217"><circle class="cls-2" cx="179.14" cy="86.78" r="1.74"/><path class="cls-2" d="M226,74.21H148.24a3.56,3.56,0,0,0-3.56,3.56v49.88a3.56,3.56,0,0,0,3.56,3.57H226a3.56,3.56,0,0,0,3.56-3.57V77.77A3.56,3.56,0,0,0,226,74.21ZM188.89,107.1,172.65,90.86l1.86-8.71,8.71-1.85,16.24,16.23Z"/><path class="cls-2" d="M173.38,71.66V68.07a3.56,3.56,0,0,1,3.56-3.56h20.39a3.56,3.56,0,0,1,3.56,3.56v3.59h6.53V68.07A10.1,10.1,0,0,0,197.33,58H176.94a10.11,10.11,0,0,0-10.09,10.09v3.59Z"/><path class="cls-2" d="M143.5,61.31l5.3,10.35h13.44l-4.89-24.19L177.12,27.7a5.25,5.25,0,0,0-7.42-7.42L149.93,40.05l-47.41-9.59L98.4,34.58l37.68,19.31-19.29,19.3L106.6,71.13l-4.12,4.12,13,6.67,6.66,13,4.13-4.12L124.2,80.61Z"/></g><g id="SvgjsG2218"><path class="cls-3" d="M47.61,175.11h2.25L46.29,189H43.54c.61-7.24,0-9.89-4.18-9.89H30.08V233c0,2.55,1.93,3.26,7.24,3.77v2.65c-7.85-.31-16.32-.31-24.17,0v-2.65c5.3-.51,7.24-1.22,7.24-3.77V179.08H12c-4.18,0-5.2,1.63-9.28,9.89H0l3.67-13.86H5.91c2.55.71,3.88,1,8.67,1H39C43.74,176.12,45.17,175.82,47.61,175.11Zm34.57,12.23c5.09,0,8.15,2.45,8.15,5.51,0,2.85-1.73,4.89-4.48,4.89-4.69,0-3.88-4.69-8.77-4.69-5.91,0-8.67,7.85-9.48,9.69V233c0,2.55,2.85,3.36,5.91,3.77v2.65a183,183,0,0,0-21.21,0v-2.65c3.37-.41,6.12-1.22,6.12-3.77V198.45c0-3.46-2.14-4.38-6.12-3.87v-2.65c7.85-1.23,11.12-4.69,13.16-4.69,1.42,0,2.24.92,2.14,2.55l-1.53,9.78C69.53,192.34,74.12,187.34,82.18,187.34Zm21.1-8.56a5.19,5.19,0,0,1-5.1-5.1,5.24,5.24,0,0,1,5.1-5,5.05,5.05,0,1,1,0,10.1ZM108.79,233c0,2.55,2.75,3.36,6,3.77v2.65c-7.13-.31-14.17-.31-21.31,0v-2.65c3.37-.41,6-1.22,6-3.77V197.74c0-3.37-2.14-4.28-6.12-4.08V191c8.06-1.12,11.32-3.77,13.36-3.77,1.53,0,2.65.61,2.65,2.44,0,2.66-.61,6.33-.61,12.65Zm38.43-45.48c11.22,0,20.91,9.49,20.91,26.61,0,16.83-11,26.41-22.43,26.41a17.24,17.24,0,0,1-13.06-5.5v14.58c0,3.36,2,4.38,7,3.87v2.75c-8.77,1.33-13.56,5.1-16.72,5.1-1.33,0-2.14-.61-2.14-1.63,0-2.14,2.55-1.43,2.55-8.87V198.35c0-3.47-2.14-4.38-6.12-3.87v-2.65c7.85-1.23,11.32-4.59,13.46-4.59,1.22,0,1.93.81,1.93,2.44v4.69a19.31,19.31,0,0,1,14.58-6.83Zm-1.63,50.27c8.67,0,12.54-6.63,12.54-21.11,0-14.78-3.87-26.2-12.94-26.2-5.51,0-10.2,4-12.55,7.34v27.33C132.75,230.47,138.56,237.81,145.59,237.81Zm63.62-12c0,8.56-8.05,14.78-15.39,14.78-6.53,0-9.89-3.47-13.26-3.47a2.6,2.6,0,0,0-2.75,2.25h-2.55l-1.12-13.56h1.12c1.23,0,2.35.1,2.55,1.32,1.43,5.81,9.79,10.61,15.19,10.61a7.63,7.63,0,0,0,8.06-8c0-6-5.2-8.46-13.05-12.64-7.45-3.87-13.77-8.56-13.77-16.52,0-7,6-13.05,14.58-13.05,6.32,0,8.57,2.86,11.42,2.86a2.57,2.57,0,0,0,2.45-2h2.55l.92,12.85h-1.23a1.88,1.88,0,0,1-2.14-1.43c-2.75-5.41-8.26-9.69-13.15-9.69s-7.65,3.67-7.65,7.75c0,5,3.47,7.44,9.79,10.71,6.52,3.36,17.43,7.85,17.43,17.23Zm30.69,10.5a13.14,13.14,0,0,1-9.28,3.87c-6.83,0-11.82-3.36-11.82-12.84V191.42h-4.59a.86.86,0,0,1-.92-.92v-1.22a.92.92,0,0,1,.92-.92c6.32,0,9-4.38,10.3-13.87h3.67v13.87h11a.92.92,0,0,1,.92.92v1.22a.86.86,0,0,1-.92.92h-11v37.82c0,3.67,1,7.14,5.2,7.14a8,8,0,0,0,6.52-3.67Zm43-7.75c.71,0,1.12.71.71,1.73-2.34,5.51-7.85,10.2-16.72,10.2-13.36,0-23.86-9.28-23.86-26.51,0-16.72,10.81-26.41,22.74-26.41,10.7,0,20.19,7.45,20.19,21.31,0,3.37-1.23,5.41-4.59,5.41H253.46c.1,14.58,5.81,23.24,14.68,23.24,5,0,8.87-2.24,11.53-7.44.4-.92.71-1.53,1.73-1.53Zm-6.12-17.13c0-13.15-3.26-21.1-10.91-21.1-7.85,0-12.34,8-12.44,21.1Zm43-24.06c5.09,0,8.15,2.45,8.15,5.51,0,2.85-1.73,4.89-4.48,4.89-4.69,0-3.88-4.69-8.77-4.69-5.92,0-8.67,7.85-9.48,9.69V233c0,2.55,2.85,3.36,5.91,3.77v2.65a183,183,0,0,0-21.21,0v-2.65c3.37-.41,6.12-1.22,6.12-3.77V198.45c0-3.46-2.14-4.38-6.12-3.87v-2.65c7.85-1.23,11.12-4.69,13.16-4.69,1.42,0,2.24.92,2.14,2.55l-1.53,9.78c3.46-7.23,8-12.23,16.11-12.23Z"/></g><g id="SvgjsG4039"><rect class="cls-1" x="394.47" y="80.3" width="130.53" height="117.96" rx="9.67"/></g><g id="SvgjsG4040"><circle class="cls-2" cx="470.61" cy="147.5" r="1.22"/><path class="cls-2" d="M503.6,138.66H448.87a2.51,2.51,0,0,0-2.51,2.5v35.09a2.51,2.51,0,0,0,2.51,2.51H503.6a2.5,2.5,0,0,0,2.5-2.51V141.16A2.5,2.5,0,0,0,503.6,138.66Zm-26.13,23.13-11.42-11.42,1.3-6.13,6.13-1.3,11.42,11.42Z"/><path class="cls-2" d="M466.56,136.86v-2.52a2.5,2.5,0,0,1,2.5-2.51h14.35a2.5,2.5,0,0,1,2.5,2.51v2.52h4.6v-2.52a7.11,7.11,0,0,0-7.1-7.1H469.06a7.11,7.11,0,0,0-7.1,7.1v2.52Z"/><path class="cls-2" d="M445.54,129.58l3.73,7.28h9.45l-3.44-17,13.91-13.91a3.69,3.69,0,1,0-5.22-5.21l-13.91,13.9-33.35-6.74-2.9,2.9,26.51,13.58-13.58,13.58-7.16-1.45-2.9,2.9,9.15,4.69,4.68,9.14,2.9-2.9L432,143.16Z"/></g><g id="SvgjsG4041"><path class="cls-3" d="M580.07,91.88h1.68l-2.67,10.41H577c.46-5.43,0-7.42-3.14-7.42h-7v40.47c0,1.91,1.46,2.45,5.43,2.83v2c-5.89-.23-12.24-.23-18.13,0v-2c4-.38,5.43-.92,5.43-2.83V94.87h-6.27c-3.14,0-3.9,1.22-7,7.42h-2.07l2.76-10.41h1.68a19,19,0,0,0,6.5.77h18.29A18.68,18.68,0,0,0,580.07,91.88ZM606,101.07c3.82,0,6.12,1.83,6.12,4.13,0,2.14-1.3,3.67-3.37,3.67-3.52,0-2.91-3.52-6.58-3.52-4.44,0-6.5,5.89-7.11,7.27v22.72c0,1.91,2.14,2.53,4.43,2.83v2a136.21,136.21,0,0,0-15.91,0v-2c2.52-.3,4.59-.92,4.59-2.83V109.4c0-2.6-1.61-3.29-4.59-2.9v-2c5.89-.92,8.34-3.52,9.87-3.52,1.07,0,1.68.69,1.61,1.91l-1.15,7.35C596.52,104.81,600,101.07,606,101.07Zm15.83-6.43A3.89,3.89,0,0,1,618,90.81a3.93,3.93,0,0,1,3.82-3.75,3.79,3.79,0,1,1,0,7.58Zm4.14,40.7c0,1.91,2.06,2.53,4.51,2.83v2c-5.36-.23-10.63-.23-16,0v-2c2.52-.3,4.51-.92,4.51-2.83V108.87c0-2.53-1.6-3.21-4.59-3.06v-2c6.05-.84,8.5-2.83,10-2.83,1.14,0,2,.46,2,1.83,0,2-.45,4.75-.45,9.49Zm28.84-34.12c8.42,0,15.68,7.11,15.68,20,0,12.62-8.26,19.81-16.83,19.81a12.92,12.92,0,0,1-9.79-4.13v10.94c0,2.53,1.53,3.29,5.28,2.91v2.06c-6.58,1-10.18,3.83-12.55,3.83-1,0-1.61-.46-1.61-1.22,0-1.61,1.92-1.08,1.92-6.66v-39.4c0-2.6-1.61-3.29-4.59-2.91v-2c5.89-.92,8.49-3.44,10.09-3.44.92,0,1.46.61,1.46,1.83v3.52a14.47,14.47,0,0,1,10.94-5.12Zm-1.22,37.72c6.5,0,9.41-5,9.41-15.84,0-11.09-2.91-19.66-9.72-19.66-4.13,0-7.65,3-9.41,5.51v20.5C644,133.43,648.32,138.94,653.6,138.94Zm47.74-9c0,6.43-6.05,11.09-11.56,11.09-4.89,0-7.42-2.6-9.94-2.6a2,2,0,0,0-2.07,1.68h-1.91L675,129.91h.84c.92,0,1.76.08,1.91,1,1.07,4.36,7.35,8,11.4,8a5.73,5.73,0,0,0,6.05-6c0-4.51-3.91-6.35-9.8-9.48-5.58-2.91-10.33-6.43-10.33-12.4,0-5.28,4.52-9.79,10.94-9.79,4.75,0,6.43,2.14,8.57,2.14a1.93,1.93,0,0,0,1.84-1.53h1.91l.69,9.64h-.92a1.4,1.4,0,0,1-1.6-1.07c-2.07-4.06-6.2-7.27-9.87-7.27a5.52,5.52,0,0,0-5.74,5.82c0,3.74,2.6,5.58,7.34,8,4.9,2.52,13.09,5.89,13.09,12.93Zm23,7.88a9.87,9.87,0,0,1-7,2.91c-5.12,0-8.87-2.53-8.87-9.64V104.13h-3.44a.64.64,0,0,1-.69-.69v-.92a.69.69,0,0,1,.69-.69c4.74,0,6.73-3.29,7.72-10.4h2.76v10.4h8.26a.69.69,0,0,1,.69.69v.92a.65.65,0,0,1-.69.69h-8.26v28.38c0,2.75.76,5.36,3.9,5.36a6,6,0,0,0,4.9-2.76ZM756.65,132c.54,0,.84.54.54,1.31-1.76,4.13-5.89,7.65-12.55,7.65-10,0-17.9-7-17.9-19.9,0-12.54,8.11-19.81,17.06-19.81,8,0,15.15,5.58,15.15,16,0,2.52-.92,4.05-3.45,4.05h-21c.08,10.94,4.36,17.45,11,17.45,3.75,0,6.65-1.69,8.64-5.59.31-.69.54-1.15,1.3-1.15Zm-4.59-12.85c0-9.87-2.45-15.84-8.19-15.84s-9.25,6-9.33,15.84Zm32.29-18.05c3.82,0,6.12,1.83,6.12,4.13,0,2.14-1.3,3.67-3.37,3.67-3.52,0-2.91-3.52-6.58-3.52-4.44,0-6.5,5.89-7.11,7.27v22.72c0,1.91,2.14,2.53,4.43,2.83v2a136.21,136.21,0,0,0-15.91,0v-2c2.53-.3,4.59-.92,4.59-2.83V109.4c0-2.6-1.61-3.29-4.59-2.9v-2c5.89-.92,8.34-3.52,9.87-3.52,1.07,0,1.68.69,1.61,1.91l-1.15,7.35c2.6-5.44,6-9.18,12.09-9.18Z"/></g><g id="SvgjsG4042"><path class="cls-3" d="M544.34,171.91l2-.33v2.6h3.06v1.67h-3.06v3.5a2.55,2.55,0,0,0,.33,1.48,1.29,1.29,0,0,0,1.12.44,3.52,3.52,0,0,0,1-.11l.67-.21.33,1.57a7.82,7.82,0,0,1-.91.31,5,5,0,0,1-1.31.16,4.24,4.24,0,0,1-1.54-.25,2.26,2.26,0,0,1-1-.72,2.86,2.86,0,0,1-.51-1.13,7,7,0,0,1-.15-1.52ZM560.22,176a5.29,5.29,0,0,0-.68-.18,5.09,5.09,0,0,0-1-.09,5.71,5.71,0,0,0-1.21.18v6.9h-2v-8.2a11.69,11.69,0,0,1,1.44-.4,9.29,9.29,0,0,1,1.91-.19l.46,0c.18,0,.35,0,.53.06l.51.1.39.11Zm8.75,5.41a7,7,0,0,0,1.4-.1v-2.2a2.6,2.6,0,0,0-.48-.1,3.6,3.6,0,0,0-.69-.05,3.67,3.67,0,0,0-.66.05,1.89,1.89,0,0,0-.61.18,1.14,1.14,0,0,0-.44.37,1,1,0,0,0-.16.6,1.07,1.07,0,0,0,.44,1A2.32,2.32,0,0,0,569,181.39Zm-.16-7.42a4.72,4.72,0,0,1,1.66.25,2.58,2.58,0,0,1,1.08.69,2.46,2.46,0,0,1,.57,1.07,5.16,5.16,0,0,1,.18,1.4v5.21c-.31.07-.77.15-1.39.24a14.67,14.67,0,0,1-2.1.14,6.25,6.25,0,0,1-1.42-.15,3,3,0,0,1-1.09-.48,2.27,2.27,0,0,1-.71-.85,3,3,0,0,1-.25-1.3,2.51,2.51,0,0,1,.28-1.25,2.42,2.42,0,0,1,.79-.83,3.22,3.22,0,0,1,1.14-.46,6,6,0,0,1,1.36-.14,5.53,5.53,0,0,1,.69,0,6,6,0,0,1,.77.14v-.33a2.84,2.84,0,0,0-.08-.66,1.39,1.39,0,0,0-.29-.55,1.41,1.41,0,0,0-.54-.37,2.34,2.34,0,0,0-.85-.13,7.19,7.19,0,0,0-1.27.1,4.84,4.84,0,0,0-.93.23l-.25-1.62a9.65,9.65,0,0,1,1.1-.26A8.45,8.45,0,0,1,568.81,174Zm12.12,8.82c-.54-1.13-1.11-2.43-1.68-3.89a48.33,48.33,0,0,1-1.57-4.72h2.12c.12.49.26,1,.42,1.56s.33,1.11.51,1.66.37,1.09.56,1.61.37,1,.53,1.41c.17-.42.34-.89.53-1.41s.37-1.06.55-1.61.35-1.11.52-1.66.31-1.07.43-1.56h2a48.33,48.33,0,0,1-1.57,4.72c-.57,1.46-1.14,2.76-1.68,3.89Zm10-4.26a5.5,5.5,0,0,1,.33-2,4.37,4.37,0,0,1,.9-1.43,3.63,3.63,0,0,1,1.28-.85,4.06,4.06,0,0,1,1.48-.29,3.58,3.58,0,0,1,2.78,1.1,4.79,4.79,0,0,1,1,3.29c0,.11,0,.24,0,.37s0,.26,0,.37H593a2.32,2.32,0,0,0,.73,1.61,2.86,2.86,0,0,0,1.89.56,6,6,0,0,0,1.32-.13,5.6,5.6,0,0,0,1-.28l.26,1.63a2.7,2.7,0,0,1-.45.17,6.26,6.26,0,0,1-.66.17c-.25,0-.51.09-.8.12a8.14,8.14,0,0,1-.87.05,5.14,5.14,0,0,1-2-.34,3.7,3.7,0,0,1-1.39-.93,3.82,3.82,0,0,1-.8-1.42A5.63,5.63,0,0,1,590.91,178.53Zm5.77-.89a2.45,2.45,0,0,0-.12-.78,1.69,1.69,0,0,0-.33-.64,1.45,1.45,0,0,0-.55-.43,1.61,1.61,0,0,0-.76-.16,1.71,1.71,0,0,0-1.39.63,2,2,0,0,0-.37.64,3.2,3.2,0,0,0-.18.74ZM607.77,183a5,5,0,0,1-1.47-.2,2.3,2.3,0,0,1-.93-.51,2,2,0,0,1-.49-.84,4.47,4.47,0,0,1-.14-1.15v-9.9l2-.33v9.86a2.52,2.52,0,0,0,.06.6.93.93,0,0,0,.21.42.89.89,0,0,0,.4.27,3.8,3.8,0,0,0,.65.14Zm16.72,0a5,5,0,0,1-1.47-.2,2.3,2.3,0,0,1-.93-.51,1.87,1.87,0,0,1-.49-.84,4.47,4.47,0,0,1-.14-1.15v-9.9l2-.33v9.86a2.52,2.52,0,0,0,.06.6,1,1,0,0,0,.2.42.92.92,0,0,0,.41.27,3.6,3.6,0,0,0,.65.14Zm7.9-.16h-2v-8.61h2Zm.21-11.12a1.12,1.12,0,0,1-.36.88,1.3,1.3,0,0,1-1.73,0,1.12,1.12,0,0,1-.36-.88,1.17,1.17,0,0,1,.36-.91,1.3,1.3,0,0,1,1.73,0A1.17,1.17,0,0,1,632.6,171.67Zm8.31,5.87.81-.85.83-.9.79-.87.63-.74h2.35c-.55.62-1.13,1.25-1.73,1.91s-1.22,1.3-1.84,1.93a10.36,10.36,0,0,1,1,1c.36.39.71.81,1.05,1.24s.66.88,1,1.32.54.84.74,1.22h-2.31a12.45,12.45,0,0,0-.68-1.07c-.26-.37-.53-.74-.83-1.09s-.6-.68-.91-1a6.47,6.47,0,0,0-.9-.8v3.95h-2V170.35l2-.33Zm10.6,1a5.5,5.5,0,0,1,.33-2,4.37,4.37,0,0,1,.9-1.43,3.63,3.63,0,0,1,1.28-.85,4.06,4.06,0,0,1,1.48-.29,3.58,3.58,0,0,1,2.78,1.1,4.79,4.79,0,0,1,1,3.29c0,.11,0,.24,0,.37s0,.26,0,.37h-5.68a2.32,2.32,0,0,0,.73,1.61,2.86,2.86,0,0,0,1.89.56,6,6,0,0,0,1.32-.13,5.6,5.6,0,0,0,1-.28l.26,1.63a2.7,2.7,0,0,1-.45.17,6.26,6.26,0,0,1-.66.17c-.25,0-.51.09-.8.12a8.14,8.14,0,0,1-.87.05,5.14,5.14,0,0,1-2-.34,3.58,3.58,0,0,1-1.38-.93,3.71,3.71,0,0,1-.81-1.42,5.63,5.63,0,0,1-.26-1.78Zm5.77-.89a2.45,2.45,0,0,0-.12-.78,1.69,1.69,0,0,0-.33-.64,1.45,1.45,0,0,0-.55-.43,1.61,1.61,0,0,0-.76-.16,1.71,1.71,0,0,0-1.39.63,2,2,0,0,0-.37.64,3.2,3.2,0,0,0-.18.74Zm19,3.75a6.93,6.93,0,0,0,1.39-.1v-2.2a2.47,2.47,0,0,0-.47-.1,3.73,3.73,0,0,0-.69-.05,3.78,3.78,0,0,0-.67.05,1.89,1.89,0,0,0-.61.18,1.14,1.14,0,0,0-.44.37,1.11,1.11,0,0,0-.16.6,1.07,1.07,0,0,0,.44,1A2.33,2.33,0,0,0,676.24,181.39Zm-.17-7.42a4.72,4.72,0,0,1,1.66.25,2.5,2.5,0,0,1,1.66,1.76,5.59,5.59,0,0,1,.17,1.4v5.21c-.31.07-.77.15-1.39.24a14.67,14.67,0,0,1-2.1.14,6.16,6.16,0,0,1-1.41-.15,3,3,0,0,1-1.1-.48,2.27,2.27,0,0,1-.71-.85,3,3,0,0,1-.25-1.3,2.51,2.51,0,0,1,.29-1.25,2.3,2.3,0,0,1,.78-.83,3.22,3.22,0,0,1,1.14-.46,6.09,6.09,0,0,1,1.36-.14,5.53,5.53,0,0,1,.69,0,6,6,0,0,1,.77.14v-.33a2.39,2.39,0,0,0-.08-.66,1.33,1.33,0,0,0-.83-.92,2.3,2.3,0,0,0-.85-.13,7,7,0,0,0-1.26.1,4.77,4.77,0,0,0-.94.23l-.25-1.62a9.65,9.65,0,0,1,1.1-.26,8.53,8.53,0,0,1,1.55-.13Zm17.76,8.82V170.35l2-.33v4.26a7.47,7.47,0,0,1,.76-.2,5.1,5.1,0,0,1,.86-.08,4.44,4.44,0,0,1,1.72.29,2.68,2.68,0,0,1,1.1.81,3.09,3.09,0,0,1,.58,1.24A6.69,6.69,0,0,1,701,178v4.84h-2v-4.53a6.47,6.47,0,0,0-.09-1.17,2.14,2.14,0,0,0-.29-.79,1.21,1.21,0,0,0-.55-.45,2.38,2.38,0,0,0-.86-.14,3.86,3.86,0,0,0-.81.09,5.57,5.57,0,0,0-.6.14v6.85Zm15.58,0h-2v-8.61h2Zm.21-11.12a1.12,1.12,0,0,1-.36.88,1.3,1.3,0,0,1-1.73,0,1.12,1.12,0,0,1-.36-.88,1.17,1.17,0,0,1,.36-.91,1.3,1.3,0,0,1,1.73,0A1.17,1.17,0,0,1,709.62,171.67Zm12,6.86a3.24,3.24,0,0,0-.6-2.08,2.37,2.37,0,0,0-1.94-.74l-.58,0a2.53,2.53,0,0,0-.6.11v4.91a3,3,0,0,0,.7.34,2.6,2.6,0,0,0,.93.16,1.8,1.8,0,0,0,1.59-.74A3.55,3.55,0,0,0,721.65,178.53Zm2,0a6,6,0,0,1-.26,1.81,4.24,4.24,0,0,1-.73,1.42,3.38,3.38,0,0,1-1.19.92,3.84,3.84,0,0,1-1.62.33,3.94,3.94,0,0,1-1.12-.15,4.32,4.32,0,0,1-.84-.33v3.34h-2V174.46c.4-.11.9-.21,1.5-.31a11.16,11.16,0,0,1,1.87-.15,5,5,0,0,1,1.83.32,3.65,3.65,0,0,1,1.37.89,3.86,3.86,0,0,1,.87,1.42A5.18,5.18,0,0,1,723.69,178.49Zm8.21,2.87a2.72,2.72,0,0,0,1.15-.19.68.68,0,0,0,.36-.65.86.86,0,0,0-.38-.71,5.7,5.7,0,0,0-1.28-.61,9.21,9.21,0,0,1-1-.42,3.28,3.28,0,0,1-.79-.52,1.93,1.93,0,0,1-.51-.71,2.43,2.43,0,0,1-.19-1,2.26,2.26,0,0,1,.87-1.87,3.77,3.77,0,0,1,2.37-.68,7.48,7.48,0,0,1,1.44.14,6.23,6.23,0,0,1,1,.27l-.36,1.61a4.63,4.63,0,0,0-.84-.27,5.17,5.17,0,0,0-1.18-.12,2.15,2.15,0,0,0-1,.2.69.69,0,0,0-.38.64,1.12,1.12,0,0,0,.07.38.81.81,0,0,0,.26.3,2.54,2.54,0,0,0,.48.28c.19.09.44.19.72.29a10.2,10.2,0,0,1,1.2.52,3.49,3.49,0,0,1,.82.57,2,2,0,0,1,.46.73,3,3,0,0,1,.15,1,2.13,2.13,0,0,1-.91,1.87,4.57,4.57,0,0,1-2.61.63,6.94,6.94,0,0,1-1.82-.19,9.41,9.41,0,0,1-1-.3l.34-1.66a9.54,9.54,0,0,0,1.06.34,5.45,5.45,0,0,0,1.41.17Zm9.26-9.45,2-.33v2.6h3.06v1.67h-3.06v3.5a2.55,2.55,0,0,0,.33,1.48,1.29,1.29,0,0,0,1.12.44,3.52,3.52,0,0,0,1-.11l.67-.21.33,1.57a7.82,7.82,0,0,1-.91.31,5,5,0,0,1-1.31.16,4.24,4.24,0,0,1-1.54-.25,2.26,2.26,0,0,1-1-.72,2.86,2.86,0,0,1-.51-1.13,7,7,0,0,1-.15-1.52v-7.46Zm10.5,6.62a5.28,5.28,0,0,1,.34-2,4.19,4.19,0,0,1,.89-1.43,3.67,3.67,0,0,1,1.29-.85,4,4,0,0,1,1.48-.29,3.56,3.56,0,0,1,2.77,1.1,4.79,4.79,0,0,1,1,3.29v.37c0,.14,0,.26,0,.37h-5.67a2.28,2.28,0,0,0,.73,1.61,2.81,2.81,0,0,0,1.88.56,6.12,6.12,0,0,0,1.33-.13,5.45,5.45,0,0,0,.94-.28l.27,1.63a2.53,2.53,0,0,1-.46.17c-.19.06-.41.12-.65.17s-.52.09-.8.12a8.46,8.46,0,0,1-.87.05,5.2,5.2,0,0,1-2-.34,3.58,3.58,0,0,1-1.38-.93,4,4,0,0,1-.81-1.42,5.93,5.93,0,0,1-.26-1.78Zm5.77-.89a2.45,2.45,0,0,0-.11-.78,1.87,1.87,0,0,0-.34-.64,1.49,1.49,0,0,0-.54-.43,1.65,1.65,0,0,0-.77-.16,1.85,1.85,0,0,0-.8.17,1.92,1.92,0,0,0-.59.46,2,2,0,0,0-.37.64,4.7,4.7,0,0,0-.18.74Zm13-1.66a4.88,4.88,0,0,0-.68-.18,5.05,5.05,0,0,0-1-.09,4.48,4.48,0,0,0-.7.07,4.24,4.24,0,0,0-.52.11v6.9h-2v-8.2a11.69,11.69,0,0,1,1.44-.4,9.39,9.39,0,0,1,1.92-.19l.46,0,.52.06.51.1.4.11Z"/></g></g></svg>