<?xml version="1.0" encoding="utf-8"?>
<!-- Generator: Adobe Illustrator 23.0.1, SVG Export Plug-In . SVG Version: 6.00 Build 0)  -->
<svg version="1.1" xmlns="http://www.w3.org/2000/svg" xmlns:xlink="http://www.w3.org/1999/xlink" x="0px" y="0px"
	 viewBox="0 0 500 500" style="enable-background:new 0 0 500 500;" xml:space="preserve">
<style type="text/css">
	.st0{fill:#EBEBEB;}
	.st1{fill:#F0F0F0;}
	.st2{fill:#F5F5F5;}
	.st3{fill:#E6E6E6;}
	.st4{fill:#E0E0E0;}
	.st5{fill:#FFFFFF;}
	.st6{display:none;}
	.st7{display:inline;}
	.st8{fill:#407BFF;}
	.st9{opacity:0.9;fill:#FFFFFF;}
	.st10{fill:#FFB573;}
	.st11{fill:#263238;}
	.st12{opacity:0.2;}
	.st13{fill:#4361EE;}
	.st14{fill:#ED893E;}
	.st15{opacity:0.19;fill:#407BFF;}
	.st16{opacity:0.2;fill:#FFFFFF;}
	.st17{opacity:0.3;}
</style>
<g id="Background_Complete">
	<g>
		<g>
			<rect y="382.4" class="st0" width="500" height="0.3"/>
			<path class="st0" d="M237,337.8H43.9c-3.1,0-5.7-2.6-5.7-5.7V60.7c0-3.1,2.6-5.7,5.7-5.7H237c3.1,0,5.7,2.6,5.7,5.7v271.4
				C242.7,335.2,240.2,337.8,237,337.8z M43.9,55.2c-3,0-5.5,2.4-5.5,5.5v271.4c0,3,2.4,5.5,5.5,5.5H237c3,0,5.5-2.4,5.5-5.5V60.7
				c0-3-2.4-5.5-5.5-5.5H43.9z"/>
			<path class="st0" d="M453.3,337.8H260.2c-3.1,0-5.7-2.6-5.7-5.7V60.7c0-3.1,2.6-5.7,5.7-5.7h193.1c3.1,0,5.7,2.6,5.7,5.7v271.4
				C459,335.2,456.5,337.8,453.3,337.8z M260.2,55.2c-3,0-5.5,2.4-5.5,5.5v271.4c0,3,2.4,5.5,5.5,5.5h193.1c3,0,5.5-2.4,5.5-5.5
				V60.7c0-3-2.4-5.5-5.5-5.5H260.2z"/>
		</g>
		<g>
			<rect x="418.3" y="391.9" class="st0" width="31.6" height="0.3"/>
			<rect x="301.9" y="389.2" class="st0" width="33.4" height="0.3"/>
			<rect x="396.6" y="401.2" class="st0" width="62.4" height="0.3"/>
			<rect x="52.5" y="399.5" class="st0" width="19.2" height="0.3"/>
			<rect x="80.6" y="399.5" class="st0" width="30.3" height="0.3"/>
			<rect x="189.6" y="395.3" class="st0" width="54.6" height="0.3"/>
		</g>
	</g>
	<g>
		<g>
			<g>
				<g>
					
						<rect x="266" y="273.7" transform="matrix(-1.836970e-16 1 -1 -1.836970e-16 648.3831 -57.3433)" class="st1" width="173.8" height="43.6"/>
					
						<rect x="333.7" y="213.5" transform="matrix(-1.836970e-16 1 -1 -1.836970e-16 585.7394 -119.987)" class="st2" width="38.3" height="38.8"/>
					<path class="st3" d="M361.4,213.2L361.4,213.2h-17.2l0,0c0,2.2,1.8,4,4,4h9.2C359.7,217.2,361.4,215.4,361.4,213.2z"/>
					
						<rect x="333.7" y="255.3" transform="matrix(-1.836970e-16 1 -1 -1.836970e-16 627.5018 -78.2245)" class="st2" width="38.3" height="38.8"/>
					
						<rect x="333.7" y="297" transform="matrix(-1.836970e-16 1 -1 -1.836970e-16 669.2643 -36.462)" class="st2" width="38.3" height="38.8"/>
					
						<rect x="333.7" y="338.8" transform="matrix(-1.836970e-16 1 -1 -1.836970e-16 711.0267 5.3004)" class="st2" width="38.3" height="38.8"/>
					<path class="st3" d="M361.4,255L361.4,255h-17.2l0,0c0,2.2,1.8,4,4,4h9.2C359.7,258.9,361.4,257.2,361.4,255z"/>
					<path class="st3" d="M361.4,296.7L361.4,296.7h-17.2l0,0c0,2.2,1.8,4,4,4h9.2C359.7,300.7,361.4,298.9,361.4,296.7z"/>
					<path class="st3" d="M361.4,338.5L361.4,338.5h-17.2l0,0c0,2.2,1.8,4,4,4h9.2C359.7,342.5,361.4,340.7,361.4,338.5z"/>
					
						<rect x="298.6" y="284.6" transform="matrix(-1.836970e-16 1 -1 -1.836970e-16 681.0403 -90.0005)" class="st2" width="173.8" height="21.8"/>
				</g>
				<g>
					
						<rect x="313.5" y="273.7" transform="matrix(-1.836970e-16 1 -1 -1.836970e-16 695.8741 -104.8343)" class="st1" width="173.8" height="43.6"/>
					
						<rect x="381.2" y="213.5" transform="matrix(-1.836970e-16 1 -1 -1.836970e-16 633.2304 -167.478)" class="st2" width="38.3" height="38.8"/>
					<path class="st3" d="M408.9,213.2L408.9,213.2h-17.2l0,0c0,2.2,1.8,4,4,4h9.2C407.2,217.2,408.9,215.4,408.9,213.2z"/>
					
						<rect x="381.2" y="255.3" transform="matrix(-1.836970e-16 1 -1 -1.836970e-16 674.9929 -125.7156)" class="st2" width="38.3" height="38.8"/>
					
						<rect x="381.2" y="297" transform="matrix(-1.836970e-16 1 -1 -1.836970e-16 716.7554 -83.953)" class="st2" width="38.3" height="38.8"/>
					
						<rect x="381.2" y="338.8" transform="matrix(-1.836970e-16 1 -1 -1.836970e-16 758.5178 -42.1907)" class="st2" width="38.3" height="38.8"/>
					<path class="st3" d="M408.9,255L408.9,255h-17.2l0,0c0,2.2,1.8,4,4,4h9.2C407.2,258.9,408.9,257.2,408.9,255z"/>
					<path class="st3" d="M408.9,296.7L408.9,296.7h-17.2l0,0c0,2.2,1.8,4,4,4h9.2C407.2,300.7,408.9,298.9,408.9,296.7z"/>
					<path class="st3" d="M408.9,338.5L408.9,338.5h-17.2l0,0c0,2.2,1.8,4,4,4h9.2C407.2,342.5,408.9,340.7,408.9,338.5z"/>
					
						<rect x="346.1" y="284.6" transform="matrix(-1.836970e-16 1 -1 -1.836970e-16 728.5313 -137.4915)" class="st2" width="173.8" height="21.8"/>
				</g>
			</g>
			<g>
				<g>
					<rect x="403.9" y="173.9" class="st4" width="12.7" height="34.7"/>
					<polygon class="st3" points="364,208.6 412.5,208.6 419.7,152.5 371.2,152.5 					"/>
					<polygon class="st1" points="358.5,208.6 411.3,208.6 418.5,152.5 365.7,152.5 					"/>
					<polygon class="st5" points="407.4,204.2 413.5,156.9 369.5,156.9 363.5,204.2 					"/>
				</g>
				
					<ellipse transform="matrix(0.7295 -0.684 0.684 0.7295 -18.4093 314.5828)" class="st3" cx="388.5" cy="180.6" rx="12.8" ry="11.3"/>
			</g>
		</g>
		<g>
			<g>
				<g>
					
						<rect x="180.4" y="95.6" transform="matrix(-1 -1.224647e-16 1.224647e-16 -1 496.5014 478.009)" class="st3" width="135.7" height="286.8"/>
					
						<rect x="177.4" y="95.6" transform="matrix(-1 -1.224647e-16 1.224647e-16 -1 490.4702 478.009)" class="st2" width="135.7" height="286.8"/>
					
						<rect x="107.9" y="176.6" transform="matrix(-1.836970e-16 1 -1 -1.836970e-16 484.2397 -6.2305)" class="st5" width="274.6" height="124.9"/>
					
						<rect x="46.6" y="237.9" transform="matrix(-1.836970e-16 1 -1 -1.836970e-16 422.943 55.0662)" class="st3" width="274.6" height="2.3"/>
					
						<rect x="179.6" y="182.6" transform="matrix(-1 -1.224647e-16 1.224647e-16 -1 490.4702 373.3628)" class="st2" width="131.2" height="8.2"/>
				</g>
			</g>
		</g>
		<g>
			<g>
				
					<rect x="135.1" y="252" transform="matrix(-1 -1.224647e-16 1.224647e-16 -1 289.1265 626.6273)" class="st1" width="18.9" height="122.6"/>
				
					<rect x="57.1" y="374.6" transform="matrix(-1 -1.224647e-16 1.224647e-16 -1 207.5052 757.0265)" class="st1" width="93.3" height="7.8"/>
				<rect x="53.5" y="252" class="st2" width="81.6" height="122.6"/>
				<rect x="60.9" y="267.1" class="st1" width="66.7" height="40.2"/>
				<rect x="60.9" y="319.3" class="st1" width="66.7" height="40.2"/>
				<path class="st2" d="M74.5,294.3v-14.2c0-1.2-1-2.3-2.3-2.3h-1c-1.2,0-2.3,1-2.3,2.3v14.2c0,1.2,1,2.3,2.3,2.3h1
					C73.4,296.5,74.5,295.5,74.5,294.3z"/>
				<path class="st2" d="M74.5,346.5v-14.2c0-1.2-1-2.3-2.3-2.3h-1c-1.2,0-2.3,1-2.3,2.3v14.2c0,1.2,1,2.3,2.3,2.3h1
					C73.4,348.8,74.5,347.7,74.5,346.5z"/>
			</g>
			<g>
				<path class="st4" d="M134.7,182.7c-2.1,1.1-7.9-0.1-6,3.8c0.9,1.8,2.4,3.8,3.9,5.7c2.1,2.6,1.7,5.5-0.8,6.5
					c-0.6,0.3-1.1,0.6-1.4,1c-1.2,1.7,1.6,3.9,2.9,5.6c1.3,1.6,1.9,3.3,0.9,4.6c-1.1,1.4-3.4,0.9-5.2,1.3c-4.4,1,0.1,7-0.3,10.1
					c-0.3,2.1-2,2.7-4.4,3c-1.9,0.2-4.5,0.4-4.6,2.4c-0.1,1.7,2.1,3.6,2.7,5.4c0.6,1.7,0.4,3.4-0.4,4.7c-0.7,1.1-1.9,1.9-3.4,2.3
					c-2.2,0.5-5.5,0-5.6,2.4c-0.1,1.1,0.7,2.1,0.2,3.1c-0.4,0.9-1.5,1.3-2.5,1.5c-1.7,0.3-4.3,0.3-6.3-0.1c-2.5-0.5-6.3-2.7-4.9-4.9
					c0.4-0.6,1.1-1,2-1.1c0.6-0.1,2.4,0.1,2.6-0.3c0.2-0.4-0.4-2-0.4-2.6c-0.1-1.7,0.2-3.2,0.7-4.7c0.7-2,1.8-3.7,3.3-5.2
					c0.6-0.6,1.6-1.1,1.7-2c0.1-0.8-0.4-1.9-1.1-2.7c-1-1.4-2.5-2.7-3-4.2c-0.9-2.3,1.2-3,3.1-3.6c1.7-0.5,4-1.1,3.4-3.2
					c-0.4-1.5-2.4-2.8-2.9-4.3c-0.8-2,1.1-2.1,2.5-2.8c1.8-0.9,2.2-2.6,1.6-4.7c-1.1-3.5-7.4-8.3-4.1-10.6c0.8-0.6,1.6-0.8,2.1-1.6
					c0.5-0.9,0.6-2.1,1.3-2.9c1.1-1.3,3.3-1.5,4.5-2.8c2.4-2.5-2.8-7,2-8c1.1-0.2,2.1-0.5,2.8-1.2c0.4-0.4,0.8-2.4,1.3-2.5
					c2.2-0.6,6.1,3.6,7.4,4.9C131.7,176.8,137.3,181.5,134.7,182.7z"/>
				<path class="st2" d="M97.2,241.3c1.3-2.4,7-4.8,3.2-7.6c-1.8-1.3-4.1-2.4-6.5-3.4c-3.3-1.4-4.5-4.6-2.8-7.2
					c0.4-0.6,0.7-1.3,0.7-1.9c0.1-2.4-3.5-3-5.6-3.9c-2-0.8-3.4-2.2-3.2-4.1c0.2-2.1,2.5-3,3.9-4.6c3.3-3.7-3.9-7.1-5.1-10.6
					c-0.9-2.4,0.3-4.1,2.3-5.8c1.6-1.4,3.7-3.2,2.8-5.3c-0.8-1.8-3.8-2.4-5.3-3.9c-1.4-1.4-2.2-3.3-2.1-5.1c0-1.6,0.6-3.1,1.8-4.4
					c1.7-1.8,4.8-3.4,3.6-6c-0.5-1.2-1.7-1.7-1.8-3c-0.1-1.1,0.6-2.2,1.4-3.1c1.4-1.4,3.6-2.9,5.6-3.8c2.5-1.1,7-1.1,7,1.9
					c0,0.9-0.5,1.7-1.1,2.4c-0.5,0.5-2.1,1.4-2.1,2c0,0.6,1.4,1.8,1.7,2.4c1,1.7,1.5,3.4,1.8,5.2c0.4,2.4,0.4,4.9-0.1,7.4
					c-0.2,1-0.8,2.1-0.4,3c0.4,0.9,1.4,1.6,2.4,2.2c1.6,0.8,3.6,1.2,4.9,2.4c2,1.8,0.5,3.9-0.9,5.6c-1.3,1.6-3,3.6-1.3,5.4
					c1.2,1.3,3.6,1.4,4.9,2.6c1.8,1.6,0.1,2.8-0.7,4.4c-1.1,2-0.6,4,1.1,5.8c2.8,2.9,11,3.9,9.3,8.3c-0.4,1.1-1,1.8-1,3
					c0,1.3,0.6,2.5,0.4,3.8c-0.3,2-2.1,3.7-2.5,5.6c-0.8,4.1,6.2,5.4,2.6,9.4c-0.8,0.9-1.6,1.8-1.8,2.9c-0.2,0.7,0.6,2.9,0.2,3.4
					c-1.6,2-7.4,0.1-9.2-0.5C103.1,245.5,95.6,244.2,97.2,241.3z"/>
				<g>
					<path class="st1" d="M82.6,235.9c0,0,0.7,16.1,27.1,16.1c26.4,0,27.1-16.1,27.1-16.1H82.6z"/>
				</g>
			</g>
		</g>
	</g>
</g>
<g id="Background_Simple" class="st6">
	<g class="st7">
		<path class="st8" d="M131.9,247c-0.8,31,5.2,70.8,41.4,81c18.1,5.1,38.1,1.7,56.2,8.3c19.2,7,31.8,17.4,54.6,18.4
			c88.6,4.2,141.3-75.8,135.1-139.3c-5.1-52.5-48.7-151.6-130.9-109c-16.2,8.4-29.1,21-45.1,29.4c-19.8,10.4-44.6,9.3-62.1,21.1
			C154.7,174.6,132.5,222.3,131.9,247z"/>
		<path class="st9" d="M131.9,247c-0.8,31,5.2,70.8,41.4,81c18.1,5.1,38.1,1.7,56.2,8.3c19.2,7,31.8,17.4,54.6,18.4
			c88.6,4.2,141.3-75.8,135.1-139.3c-5.1-52.5-48.7-151.6-130.9-109c-16.2,8.4-29.1,21-45.1,29.4c-19.8,10.4-44.6,9.3-62.1,21.1
			C154.7,174.6,132.5,222.3,131.9,247z"/>
	</g>
</g>
<g id="Shadow_1_">
	<ellipse id="_x3C_Path_x3E__74_" class="st2" cx="250" cy="416.2" rx="193.9" ry="11.3"/>
</g>
<g id="Character_1_">
	<g>
		<polygon class="st10" points="313.5,408 305.5,407.9 303.7,389.3 311.7,389.4 		"/>
		<polygon class="st10" points="354.8,408 346.8,408 340.6,389.5 348.6,389.5 		"/>
		<path class="st11" d="M345.7,407.1h9.8c0.3,0,0.6,0.2,0.7,0.5l1.6,7.1c0.2,0.7-0.4,1.4-1.2,1.4c-3.1-0.1-5.4-0.2-9.4-0.2
			c-2.4,0-9.8,0.3-13.2,0.3c-3.3,0-3.8-3.3-2.4-3.6c6.2-1.4,10.8-3.2,12.8-5C344.8,407.3,345.3,407.1,345.7,407.1z"/>
		<path class="st11" d="M305.6,407l8.8,0.1c0.3,0,0.6,0.2,0.7,0.6l1.5,7.2c0.2,0.7-0.4,1.4-1.2,1.4c-3.2-0.1-7.7-0.4-11.7-0.4
			c-4.6-0.1-8.7,0.1-14.1,0c-3.3-0.1-4.2-3.4-2.8-3.7c6.3-1.3,11.4-1.3,16.9-4.6C304.2,407.2,304.9,406.9,305.6,407z"/>
		<path class="st10" d="M310.5,168.8c-2.6,5.7-5.3,11.1-8.5,16.5c-1.6,2.7-3.2,5.3-4.9,7.9c-1.7,2.6-3.6,5.2-5.7,7.7l-0.8,0.9
			l-0.4,0.5c-0.1,0.2-0.2,0.3-0.5,0.6c-0.9,1-2.2,2.1-4.3,2.8c-1,0.3-2.1,0.4-3.2,0.3c-1.1-0.1-1.9-0.4-2.7-0.7
			c-1.5-0.7-2.5-1.5-3.3-2.3c-1.6-1.6-2.6-3.1-3.5-4.6c-0.9-1.5-1.6-3-2.3-4.5c-2.6-5.9-4.2-11.8-5.5-17.9l5.8-1.8
			c1.2,2.6,2.5,5.3,3.8,7.9c1.3,2.6,2.7,5.2,4.2,7.5c0.7,1.2,1.5,2.3,2.3,3.3c0.8,1,1.6,1.9,2.2,2.4c0.3,0.2,0.5,0.3,0.4,0.2
			c-0.1-0.1-0.2-0.1-0.5-0.2c-0.3-0.1-0.6,0-0.9,0.1c-0.6,0.2-0.7,0.3-0.6,0.2l1.1-1.5c3.2-4.5,6.1-9.6,8.9-14.7
			c2.8-5.1,5.4-10.4,7.9-15.6L310.5,168.8z"/>
		<g>
			<path class="st8" d="M313.9,163.8c2.2,7.4-13.1,27.4-13.1,27.4l-15.4-9.9c0,0,4.5-10.2,10.6-18.1
				C302.4,155.3,311.5,155.7,313.9,163.8z"/>
			<path class="st12" d="M313.9,163.8c2.2,7.4-13.1,27.4-13.1,27.4l-15.4-9.9c0,0,4.5-10.2,10.6-18.1
				C302.4,155.3,311.5,155.7,313.9,163.8z"/>
		</g>
		<path class="st12" d="M304.5,172.4c-3.2,1.4-7.8,9-10.2,14.6l6.5,4.2c0,0,5.9-7.7,9.8-15.4C308.5,173.6,306.2,171.7,304.5,172.4z"
			/>
		<path class="st10" d="M270.6,177.1l2-9.1l-9.1-0.1c0,0-2.4,6.8,2.5,10L270.6,177.1z"/>
		<polygon class="st10" points="271.6,159.6 264.2,162.2 263.5,168 272.6,168 		"/>
		<polygon class="st12" points="303.7,389.3 304.6,398.9 312.7,399 311.7,389.4 		"/>
		<polygon class="st12" points="348.6,389.5 340.6,389.5 343.8,399 351.8,399 		"/>
		<g>
			<path class="st13" d="M349.6,160.5c-8.6,30.5-6.9,62.9-7.7,69.4c-6.3-0.5-29.9-2.2-42.8-3.2c-5.6-45.7,5.6-69.2,5.6-69.2
				s2.8-0.5,6.5-0.9c1.2-0.1,2.4-0.2,3.8-0.3c0.7,0,1.5-0.1,2.2-0.1c4.8-0.1,12.8,0.7,18.2,1.4c1.1,0.1,2.3,0.3,3.4,0.5
				c1,0.2,2.1,0.4,3,0.6C346.3,159.6,349.6,160.5,349.6,160.5z"/>
			<path class="st12" d="M348.8,160.5c-8.6,30.5-6.9,62.9-7.7,69.4c-6.3-0.5-29.9-2.2-42.8-3.2c-5.6-45.7,5.6-69.2,5.6-69.2
				s2.8-0.5,6.5-0.9c1.2-0.1,2.4-0.2,3.8-0.3c0.7,0,1.5-0.1,2.2-0.1c4.8-0.1,12.8,0.7,18.2,1.4c1.1,0.1,2.3,0.3,3.4,0.5
				c1,0.2,2.1,0.4,3,0.6C345.5,159.6,348.8,160.5,348.8,160.5z"/>
		</g>
		<path class="st12" d="M340.5,173.6c-0.8,2.9,0.1,16.4,3.2,19.7c0.4-4.3,1-8.8,1.7-13.4L340.5,173.6z"/>
		<path class="st10" d="M335.2,137c-1.6,5.8-3.5,16.4,0.3,20.6c-3.4,2.9-7.9,6.3-14.8,6c-7-0.3-5.4-5-3.4-7.4
			c6.6-1.1,6.8-5.9,6-10.6L335.2,137z"/>
		<path class="st11" d="M334.8,156c0,0-2.9,4.7-14.5,7.6c1.9,1.8,2.8,6,2.8,6s15.1-3.6,14.7-12.1C337.1,156.7,334.8,156,334.8,156z"
			/>
		<path class="st11" d="M316.2,168.6c0,0,1.5-3.7,4.1-4.9c-1.2-1.3-3-5-1.9-7.8c-1.8-0.1-2.7,0.2-2.7,0.2S311.1,161.8,316.2,168.6z"
			/>
		<path class="st11" d="M319.8,168.7c-0.1,0.8-0.6,1.4-1,1.3c-0.4-0.1-0.7-0.8-0.5-1.6c0.1-0.8,0.6-1.4,1-1.3
			C319.8,167.2,320,167.9,319.8,168.7z"/>
		<path class="st11" d="M319.2,173.2c-0.1,0.8-0.5,1.4-0.9,1.4c-0.4,0-0.7-0.7-0.7-1.5c0.1-0.8,0.5-1.4,0.9-1.4
			C318.9,171.7,319.2,172.4,319.2,173.2z"/>
		<path class="st12" d="M330.3,140.6l-7,5.1c0.2,1.1,0.3,2.2,0.3,3.3c2.5-0.2,6.2-2.7,6.6-5.3C330.4,142.5,330.5,141.2,330.3,140.6z
			"/>
		<path class="st11" d="M319.1,115.2c-6.2-0.1-7.5,14.9-3.5,17.6C319.7,135.4,330.8,115.5,319.1,115.2z"/>
		<path class="st10" d="M336.5,128.3c-1.1,7.9-1.3,12.6-5.6,16.3c-6.5,5.7-16,1.3-17.3-6.7c-1.2-7.3,0.8-18.9,8.8-21.5
			C330.3,113.8,337.6,120.4,336.5,128.3z"/>
		<path class="st11" d="M335.4,136c-4,2.1-8.6-19.7,2-18.6C350.7,118.8,343.4,131.8,335.4,136z"/>
		<path class="st11" d="M317.6,117.4c0,4.9,15.9,9.7,21.3,8.1c5.4-1.7,6.8-6,3.9-9C337.8,111.3,317.6,107.8,317.6,117.4z"/>
		<path class="st11" d="M318.2,118c0,0,0.4,2.2,2.3,4.3c-1.4-0.1-2.8-2.1-3.3-3.3C316.8,117.9,318.2,118,318.2,118z"/>
		<path class="st10" d="M339.4,137.3c-1.3,1.7-3.2,2.7-5,3c-2.6,0.4-3.6-2.1-2.6-4.4c0.9-2.1,3.4-4.8,5.9-4.1
			C340.3,132.5,340.9,135.3,339.4,137.3z"/>
		<path class="st11" d="M301.6,397l13.6,0.2c0,0-4.5-53.7-3.3-78.7c0.4-7.6,1.9-18.2,3.9-29.6c2.5-14.4,3.8-20.1,7-38.2
			c2.3-12.9,4.4-21.8,4.4-21.8l-28.1-2.1c0,0-11.9,64.7-11.7,89.2C287.8,341.4,301.6,397,301.6,397z"/>
		<path class="st12" d="M317.4,246c-5.1,12.6-5.2,42.1-2.8,50.4c0.4-2.5,0.8-5,1.3-7.5c2.5-14.4,3.8-20.1,7-38.2
			c0.1-0.4,0.1-0.7,0.2-1.1C321.3,248.1,319.4,246.8,317.4,246z"/>
		<path class="st11" d="M314.3,227.9c0,0,2.5,67.7,4.4,91.1c2.1,25.7,21.3,78.2,21.3,78.2h14.7c0,0-9.8-48-12.8-73
			c-3.4-28.4,0.1-94.3,0.1-94.3L314.3,227.9z"/>
		<polygon class="st8" points="338.2,397.5 355.6,397.5 355.6,392.3 336.2,392 		"/>
		<polygon class="st8" points="299.9,397.3 316.1,397.5 316.2,392.3 298.1,391.7 		"/>
		<path class="st11" d="M324.3,129.6c0,0.6-0.4,1.1-0.9,1.1c-0.4,0-0.7-0.6-0.7-1.2c0-0.6,0.4-1.1,0.9-1.1
			C324.1,128.4,324.4,128.9,324.3,129.6z"/>
		<path class="st11" d="M317,129c0,0.6-0.4,1.1-0.9,1.1c-0.4,0-0.7-0.6-0.7-1.2c0-0.6,0.4-1.1,0.9-1.1
			C316.8,127.9,317.1,128.4,317,129z"/>
		<path class="st14" d="M319.3,129.5c0,0-1.7,3.6-3.5,5.3c1.1,1.2,3,0.8,3,0.8L319.3,129.5z"/>
		<path class="st11" d="M321.5,137.6c2.5-0.1,3.7-1.8,3.8-1.8c0.1-0.1,0-0.2,0-0.3c-0.1-0.1-0.2,0-0.3,0c0,0-1.5,1.9-4.3,1.7
			c-0.1,0-0.2,0.1-0.2,0.2c0,0.1,0.1,0.2,0.2,0.2C320.9,137.6,321.2,137.6,321.5,137.6z"/>
		<path class="st11" d="M326.7,127.4c0.1,0,0.1,0,0.2-0.1c0.2-0.1,0.2-0.3,0.1-0.5c-1.1-1.8-2.9-1.8-3-1.8c-0.2,0-0.4,0.2-0.4,0.4
			c0,0.2,0.2,0.4,0.4,0.4l0,0c0.1,0,1.4,0,2.3,1.4C326.5,127.3,326.6,127.4,326.7,127.4z"/>
		<path class="st11" d="M314.1,126.3c0.1,0,0.2-0.1,0.3-0.2c0.8-1.5,2.2-1.6,2.3-1.6c0.2,0,0.4-0.2,0.4-0.4c0-0.2-0.2-0.4-0.4-0.4
			c-0.1,0-1.8,0.1-2.9,1.9c-0.1,0.2,0,0.4,0.1,0.5C313.9,126.3,314,126.3,314.1,126.3z"/>
		<g>
			<path class="st8" d="M343.1,408.5c0.7,0,1.5-0.2,2.1-0.3c0.1,0,0.1-0.1,0.1-0.2c0-0.1,0-0.2-0.1-0.2c-0.3-0.2-2.9-1.8-3.8-1.3
				c-0.1,0.1-0.3,0.2-0.3,0.5c0,0.4,0.1,0.8,0.4,1C341.9,408.4,342.5,408.5,343.1,408.5z M344.6,408c-1.4,0.3-2.4,0.2-2.9-0.1
				c-0.2-0.2-0.3-0.4-0.3-0.7c0-0.1,0.1-0.2,0.1-0.2C342.1,406.7,343.6,407.4,344.6,408z"/>
			<path class="st8" d="M345.1,408.2c0,0,0.1,0,0.1,0c0.1,0,0.1-0.1,0.1-0.2c0-0.1-0.2-2.4-1.1-3.2c-0.2-0.2-0.5-0.3-0.8-0.2
				c0,0,0,0,0,0c-0.5,0.1-0.6,0.3-0.6,0.5C342.6,406,344.2,407.8,345.1,408.2C345.1,408.2,345.1,408.2,345.1,408.2z M343.5,405
				c0.2,0,0.3,0.1,0.4,0.2c0.6,0.5,0.9,1.8,0.9,2.5c-0.8-0.6-1.8-2-1.7-2.5C343.2,405.1,343.2,405,343.5,405L343.5,405
				C343.5,405,343.5,405,343.5,405z"/>
			<path class="st8" d="M304.8,408.1c0.1,0,0.1-0.1,0.1-0.2c0-0.1,0-0.2-0.1-0.2c-0.4-0.2-3.6-1.9-4.5-1.4c-0.2,0.1-0.3,0.3-0.3,0.5
				v0c0,0.4,0.1,0.7,0.3,0.9C301.2,408.6,303.5,408.3,304.8,408.1C304.8,408.1,304.8,408.1,304.8,408.1z M300.5,406.7
				c0.6-0.2,2.3,0.5,3.6,1.1c-1.8,0.3-3.1,0.2-3.6-0.3c-0.2-0.2-0.2-0.4-0.2-0.6C300.3,406.8,300.4,406.7,300.5,406.7
				C300.5,406.7,300.5,406.7,300.5,406.7z"/>
			<path class="st8" d="M304.8,408.1C304.8,408,304.8,408,304.8,408.1c0.1-0.1,0.1-0.1,0.1-0.2c0-0.1-0.2-2.3-1.2-3.1
				c-0.3-0.3-0.7-0.4-1-0.3l0,0c-0.5,0-0.7,0.3-0.7,0.5c-0.2,0.9,1.7,2.7,2.7,3.1C304.7,408.1,304.7,408.1,304.8,408.1z
				 M302.5,404.8c0,0,0.1,0,0.2,0l0,0c0.3,0,0.5,0.1,0.8,0.3c0.7,0.6,0.9,1.9,1,2.5c-1-0.6-2.3-2-2.2-2.5
				C302.3,405,302.3,404.9,302.5,404.8z M302.7,404.6L302.7,404.6L302.7,404.6z"/>
		</g>
		<g>
			<path class="st10" d="M351.7,165.5c2.8,5.6,5.3,11.2,7.6,17c1.2,2.9,2.3,5.8,3.3,8.8c0.5,1.5,1,3,1.5,4.5l0.4,1.1l0.4,1.3
				c0.3,0.9,0.4,1.8,0.7,2.7c1.3,7.1,0.5,13.9-0.9,20.2c-0.7,3.2-1.7,6.2-2.8,9.2c-0.6,1.5-1.2,3-1.8,4.4c-0.6,1.5-1.3,2.9-2.1,4.4
				l-5.5-2.4c0.8-2.7,1.5-5.7,2.1-8.5c0.6-2.9,1.1-5.8,1.4-8.6c0.3-2.9,0.5-5.7,0.3-8.5c-0.1-2.8-0.4-5.4-1.1-7.8
				c-0.2-0.6-0.3-1.2-0.6-1.8c-0.1-0.3-0.2-0.5-0.3-0.9l-0.4-1c-0.6-1.4-1.2-2.7-1.7-4.1c-1.2-2.8-2.4-5.5-3.7-8.2l-7.5-16.4
				L351.7,165.5z"/>
			<g>
				<path class="st8" d="M349.6,160.5c7.3,2.3,14.5,27.1,14.5,27.1l-16.9,7.4c0,0-5.5-12-8.6-21.4
					C335.2,163.4,340.8,157.8,349.6,160.5z"/>
				<path class="st12" d="M349.6,160.5c7.3,2.3,14.5,27.1,14.5,27.1l-16.9,7.4c0,0-5.5-12-8.6-21.4
					C335.2,163.4,340.8,157.8,349.6,160.5z"/>
			</g>
			<path class="st10" d="M352.8,235.4l-4,7.1l9.3,2.4c0,0,2.8-6.9-0.5-9.1L352.8,235.4z"/>
			<polygon class="st10" points="348.1,250.6 356.7,251.3 358.1,244.9 348.8,242.5 			"/>
		</g>
	</g>
</g>
<g id="Shield">
	<g>
		<polygon class="st15" points="296.7,289.3 85.2,289.3 100.1,77.7 311.7,77.7 		"/>
		<polygon class="st16" points="132.8,289.3 102.4,289.3 178.2,77.7 208.7,77.7 		"/>
		<polygon class="st16" points="206.7,289.3 139.6,289.3 215.4,77.7 282.6,77.7 		"/>
		<g>
			<polygon class="st13" points="100.7,113.8 94.5,113.4 97.2,74.6 136,74.6 136,80.8 103,80.8 			"/>
			<polygon class="st13" points="121.1,292.4 81.8,292.4 84.6,253.1 90.8,253.6 88.5,286.2 121.1,286.2 			"/>
			<polygon class="st13" points="312.2,113.8 306,113.4 308.3,80.8 275.8,80.8 275.8,74.6 315,74.6 			"/>
			<polygon class="st13" points="299.6,292.4 260.8,292.4 260.8,286.2 293.9,286.2 296.2,253.1 302.4,253.6 			"/>
		</g>
		<g class="st17">
			<path class="st8" d="M194.3,258.1c-0.2,0-0.4,0-0.5-0.1c-0.1,0-1.5-0.8-4-2.4c-1-0.6-2.3-1.4-3.6-2.3c-4.3-2.8-8.5-5.8-12.5-8.9
				c-1-0.7-1.9-1.5-2.9-2.3c-3.6-3-7-5.9-9.9-8.9c-0.8-0.8-1.5-1.5-2.3-2.3c-2.8-2.9-5.4-5.9-7.7-8.9c-0.6-0.8-1.1-1.5-1.7-2.3
				c-2.1-3-3.9-6-5.4-8.9c-0.4-0.7-0.8-1.5-1.1-2.3c-1.3-3-2.4-6-3.1-9c-0.2-0.7-0.3-1.5-0.5-2.3c-0.1-0.6-0.2-1.2-0.3-1.7
				c-0.3-2.3-0.6-4.6-0.8-7.1c-0.1-0.7-0.2-1.5-0.2-2.3c-0.3-3-0.5-5.9-0.6-8.9l0-0.3c0-0.7-0.1-1.3-0.1-2c-0.1-2.9-0.2-5.8-0.3-8.8
				l0-2.3c0-3.1,0-6.1,0-8.8c0-0.8,0-1.5,0-2.3c0.1-3.3,0.2-6.2,0.3-8.8l0-0.2c0-0.7,0.1-1.4,0.1-2.1c0.2-3.2,0.4-6.3,0.6-8.8
				c0.1-0.9,0.1-1.6,0.2-2.3c0.2-2.5,0.4-3.9,0.4-3.9c0.1-0.5,0.5-0.9,1-1c0.2,0,18.6-1.4,38.3-4.9c4-0.7,7.9-1.5,11.5-2.3
				c5.4-1.2,10.3-2.5,14.7-3.8c0.2-0.1,0.5-0.1,0.7,0c4.2,1.4,8.9,2.6,14.1,3.8c3.5,0.8,7.3,1.6,11.2,2.3
				c19.2,3.5,37.4,4.9,37.6,4.9c0.6,0,1,0.5,1,1.1c0,0,0,1.4-0.2,3.9c0,0.7-0.1,1.4-0.1,2.3c-0.1,2.6-0.4,5.6-0.6,8.8
				c-0.1,0.6-0.1,1.3-0.2,2l0,0.3c-0.2,2.6-0.6,5.6-0.9,8.8c-0.1,0.8-0.2,1.5-0.3,2.3c-0.3,2.7-0.8,5.7-1.2,8.8l-0.3,2.3
				c-0.5,3-1,6-1.5,8.8c-0.1,0.6-0.2,1.3-0.4,1.9l-0.1,0.3c-0.6,2.9-1.2,5.9-1.9,8.8c-0.2,0.8-0.4,1.5-0.5,2.3
				c-0.6,2.5-1.2,4.8-1.8,7.1c-0.2,0.6-0.3,1.2-0.5,1.7c-0.3,0.9-0.5,1.6-0.8,2.3c-1.1,3-2.6,6-4.3,9c-0.4,0.8-0.9,1.5-1.4,2.3
				c-1.9,3-4.1,6-6.7,8.9c-0.7,0.8-1.3,1.5-2,2.3c-2.7,3-5.7,5.9-8.9,8.9c-0.9,0.8-1.7,1.5-2.6,2.3c-3.4,2.9-7.1,5.9-11.2,8.8
				c-1.1,0.8-2.1,1.5-3.2,2.3c-4.4,3.1-9,6-13.7,8.8c-1.5,0.9-2.8,1.6-4,2.3c-2.7,1.5-4.3,2.3-4.3,2.3
				C194.6,258,194.4,258.1,194.3,258.1z M140.5,127.8c-0.1,0.7-0.2,1.7-0.3,3c-0.1,0.7-0.1,1.4-0.2,2.2c-0.2,2.6-0.4,5.6-0.6,8.8
				c0,0.7-0.1,1.4-0.1,2.1l0,0.2c-0.1,2.6-0.2,5.5-0.3,8.8c0,0.7,0,1.5,0,2.3c0,2.7-0.1,5.6,0,8.8l0,2.3c0.1,3,0.2,5.9,0.3,8.8
				c0,0.7,0.1,1.3,0.1,2l0,0.3c0.2,2.9,0.4,5.8,0.6,8.8c0.1,0.8,0.1,1.5,0.2,2.2c0.2,2.5,0.5,4.8,0.8,7.1c0.1,0.5,0.2,1.1,0.3,1.6
				c0.1,0.8,0.3,1.5,0.5,2.2c0.7,2.9,1.6,5.7,2.9,8.6c0.3,0.8,0.7,1.5,1.1,2.2c1.4,2.9,3.2,5.8,5.3,8.7c0.5,0.8,1.1,1.5,1.6,2.2
				c2.2,2.9,4.7,5.8,7.5,8.7c0.7,0.8,1.5,1.5,2.2,2.3c2.9,2.9,6.2,5.8,9.8,8.7c1,0.8,1.9,1.5,2.8,2.3c3.9,3,8,6,12.3,8.7
				c1.3,0.9,2.6,1.6,3.6,2.2c1.6,1,2.8,1.7,3.4,2c0.7-0.4,2-1,3.7-2c1.1-0.6,2.4-1.4,3.9-2.3c4.7-2.8,9.2-5.7,13.6-8.7
				c1-0.7,2.1-1.5,3.2-2.3c4-2.9,7.7-5.9,11-8.7c0.9-0.7,1.7-1.5,2.5-2.3c3.2-2.9,6.1-5.8,8.8-8.7c0.7-0.7,1.3-1.5,2-2.2
				c2.5-2.9,4.6-5.8,6.5-8.7c0.5-0.7,0.9-1.5,1.4-2.2c1.7-2.9,3.1-5.8,4.2-8.6c0.3-0.7,0.5-1.4,0.8-2.2c0.2-0.6,0.3-1.1,0.5-1.7
				c0.6-2.3,1.2-4.6,1.8-7.1c0.2-0.8,0.4-1.5,0.5-2.3c0.7-2.9,1.3-5.9,1.9-8.8l0.1-0.3c0.1-0.6,0.3-1.3,0.4-1.9
				c0.5-2.8,1.1-5.8,1.5-8.8l0.3-2.3c0.5-3.1,0.9-6.1,1.2-8.8c0.1-0.8,0.2-1.5,0.3-2.2c0.4-3.2,0.7-6.2,0.9-8.8l0-0.3
				c0.1-0.7,0.1-1.3,0.2-1.9c0,0,0,0,0,0c0.3-3.2,0.5-6.2,0.6-8.8c0-0.8,0.1-1.6,0.1-2.3c0.1-1.2,0.1-2.2,0.1-2.8
				c-4.2-0.4-20.1-1.8-36.8-4.8c-3.9-0.7-7.7-1.5-11.3-2.3c-5.2-1.2-9.9-2.4-14-3.8c-4.3,1.3-9.2,2.6-14.5,3.8
				c-3.7,0.8-7.6,1.6-11.6,2.3C160.8,126,144.4,127.5,140.5,127.8z"/>
			<g>
				
					<ellipse transform="matrix(0.7194 -0.6945 0.6945 0.7194 -56.6484 185.182)" class="st8" cx="200.9" cy="162.7" rx="13.6" ry="12.7"/>
				<polygon class="st8" points="203.8,167.3 200.6,167.3 197.4,167.3 188.3,209.5 206.9,209.5 				"/>
			</g>
			<g class="st12">
				<path class="st8" d="M229.7,121.9h-51.8c3.8-0.7,7.7-1.4,11.6-2.3h29C222.1,120.4,225.9,121.2,229.7,121.9z"/>
				<path class="st8" d="M267.1,132.9H138.9c0.1-0.8,0.1-1.6,0.2-2.3h128.1C267.2,131.3,267.1,132.1,267.1,132.9z"/>
				<path class="st8" d="M266.5,141.7c-0.1,0.7-0.1,1.5-0.2,2.3H138.2c0-0.8,0.1-1.5,0.1-2.3H266.5z"/>
				<path class="st8" d="M265.3,152.8c-0.1,0.7-0.2,1.5-0.3,2.3H137.8c0-0.8,0-1.5,0-2.3H265.3z"/>
				<path class="st8" d="M263.8,163.9c-0.1,0.8-0.2,1.5-0.3,2.3H137.8c0-0.8,0-1.5,0-2.3H263.8z"/>
				<path class="st8" d="M261.9,174.9c-0.1,0.8-0.3,1.5-0.4,2.3H138.3c0-0.8-0.1-1.5-0.1-2.3H261.9z"/>
				<path class="st8" d="M259.6,186c-0.2,0.8-0.4,1.5-0.5,2.3h-120c-0.1-0.8-0.2-1.5-0.2-2.3H259.6z"/>
				<path class="st8" d="M256.8,197.1c-0.2,0.8-0.5,1.5-0.8,2.3H140.6c-0.2-0.8-0.3-1.5-0.5-2.3H256.8z"/>
				<path class="st8" d="M251.7,208.1c-0.4,0.8-0.9,1.5-1.4,2.3H144.7c-0.4-0.7-0.7-1.5-1.1-2.3H251.7z"/>
				<path class="st8" d="M243.8,219.2c-0.6,0.8-1.3,1.5-2,2.3h-90c-0.6-0.7-1.1-1.5-1.7-2.3H243.8z"/>
				<path class="st8" d="M232.9,230.2c-0.9,0.8-1.7,1.5-2.6,2.3h-68.8c-0.8-0.7-1.5-1.5-2.2-2.3H232.9z"/>
				<path class="st8" d="M219.3,241.3c-1.1,0.8-2.1,1.5-3.2,2.3h-41.8c-0.9-0.7-1.9-1.5-2.9-2.3H219.3z"/>
				<path class="st8" d="M202.5,252.4c-1.5,0.9-2.8,1.6-3.9,2.3h-8.2c-1-0.6-2.3-1.4-3.6-2.3H202.5z"/>
			</g>
		</g>
	</g>
</g>
</svg>
