<?xml version="1.0" encoding="utf-8"?>
<!-- Generator: Adobe Illustrator 23.0.1, SVG Export Plug-In . SVG Version: 6.00 Build 0)  -->
<svg version="1.1" xmlns="http://www.w3.org/2000/svg" xmlns:xlink="http://www.w3.org/1999/xlink" x="0px" y="0px"
	 viewBox="0 0 500 500" style="enable-background:new 0 0 500 500;" xml:space="preserve">
<style type="text/css">
	.st0{fill:#EBEBEB;}
	.st1{fill:#F0F0F0;}
	.st2{fill:#F5F5F5;}
	.st3{fill:#E6E6E6;}
	.st4{fill:#E0E0E0;}
	.st5{display:none;}
	.st6{display:inline;}
	.st7{fill:#407BFF;}
	.st8{opacity:0.9;fill:#FFFFFF;}
	.st9{fill:#4361EE;}
	.st10{opacity:0.3;fill:#4361EE;}
	.st11{opacity:0.4;fill:#FFFFFF;}
	.st12{fill:#FFFFFF;}
	.st13{opacity:0.1;}
	.st14{opacity:0.8;}
	.st15{opacity:0.6;}
	.st16{fill:#263238;}
	.st17{opacity:0.2;}
	.st18{opacity:0.7;fill:#FFFFFF;}
	.st19{opacity:0.5;fill:#FFFFFF;}
	.st20{opacity:0.3;fill:#FFFFFF;}
	.st21{opacity:0.2;fill:#4361EE;}
	.st22{fill:#B55B52;}
	.st23{fill:#A02724;}
	.st24{opacity:0.4;}
	.st25{opacity:0.6;fill:#FAFAFA;}
	.st26{opacity:0.6;fill:#FFFFFF;}
</style>
<g id="Background_Complete">
	<rect x="416.8" y="398.5" class="st0" width="33.1" height="0.3"/>
	<rect x="322.5" y="401.2" class="st0" width="8.7" height="0.3"/>
	<rect x="396.6" y="389.2" class="st0" width="19.2" height="0.3"/>
	<rect x="52.5" y="390.9" class="st0" width="43.2" height="0.3"/>
	<rect x="104.6" y="390.9" class="st0" width="6.3" height="0.3"/>
	<rect x="131.5" y="395.1" class="st0" width="93.7" height="0.3"/>
	<g>
		<path class="st0" d="M238.4,337.8H45.3c-3.1,0-5.7-2.6-5.7-5.7V60.7c0-3.1,2.6-5.7,5.7-5.7h193.1c3.1,0,5.7,2.6,5.7,5.7v271.4
			C244.1,335.2,241.5,337.8,238.4,337.8z M45.3,55.2c-3,0-5.5,2.4-5.5,5.5v271.4c0,3,2.4,5.5,5.5,5.5h193.1c3,0,5.5-2.4,5.5-5.5
			V60.7c0-3-2.4-5.5-5.5-5.5H45.3z"/>
		<path class="st0" d="M454.7,337.8H261.6c-3.1,0-5.7-2.6-5.7-5.7V60.7c0-3.1,2.6-5.7,5.7-5.7h193.1c3.1,0,5.7,2.6,5.7,5.7v271.4
			C460.4,335.2,457.8,337.8,454.7,337.8z M261.6,55.2c-3,0-5.5,2.4-5.5,5.5v271.4c0,3,2.4,5.5,5.5,5.5h193.1c3,0,5.5-2.4,5.5-5.5
			V60.7c0-3-2.4-5.5-5.5-5.5H261.6z"/>
	</g>
	<rect y="382.4" class="st0" width="500" height="0.3"/>
	<g>
		<path class="st1" d="M119.3,314.7c-0.8-9.7-10.7-13.3-22.4-12.3c-11.7,1-20.8,6.3-19.9,16L119.3,314.7z"/>
		<path class="st1" d="M96.6,298.1c5.4-0.5,7.2-5.1,6.7-10.5c-0.5-5.4-3-9.6-8.4-9.2c-5.4,0.5-7.2,5.1-6.7,10.5
			C88.6,294.3,91.1,298.6,96.6,298.1z"/>
	</g>
	<g>
		<g>
			<path class="st2" d="M340.1,109c0.3,3-2,5.6-4.9,5.9c-3,0.3-5.6-2-5.9-4.9c-0.3-3,2-5.6,4.9-5.9C337.2,103.8,339.8,106,340.1,109
				z"/>
			<path class="st2" d="M370.2,106.3c0.3,3-2,5.6-4.9,5.9c-3,0.3-5.6-2-5.9-4.9c-0.3-3,2-5.6,4.9-5.9
				C367.3,101.1,369.9,103.3,370.2,106.3z"/>
			<path class="st2" d="M400.2,103.7c0.3,3-2,5.6-4.9,5.9c-3,0.3-5.6-2-5.9-4.9c-0.3-3,2-5.6,4.9-5.9
				C397.3,98.5,400,100.7,400.2,103.7z"/>
			<path class="st2" d="M342.8,139.6c0.3,3-2,5.6-4.9,5.9c-3,0.3-5.6-2-5.9-4.9c-0.3-3,2-5.6,4.9-5.9
				C339.9,134.4,342.5,136.6,342.8,139.6z"/>
			<path class="st2" d="M372.9,137c0.3,3-2,5.6-4.9,5.9c-3,0.3-5.6-2-5.9-4.9c-0.3-3,2-5.6,4.9-5.9C370,131.8,372.6,134,372.9,137z"
				/>
			<path class="st2" d="M402.9,134.4c0.3,3-2,5.6-4.9,5.9c-3,0.3-5.6-2-5.9-4.9c-0.3-3,2-5.6,4.9-5.9
				C400,129.2,402.7,131.4,402.9,134.4z"/>
			<path class="st2" d="M345.5,170.3c0.3,3-2,5.6-4.9,5.9c-3,0.3-5.6-2-5.9-4.9c-0.3-3,2-5.6,4.9-5.9
				C342.6,165.1,345.2,167.3,345.5,170.3z"/>
			<path class="st2" d="M375.5,167.6c0.3,3-2,5.6-4.9,5.9c-3,0.3-5.6-2-5.9-4.9c-0.3-3,2-5.6,4.9-5.9
				C372.6,162.4,375.3,164.7,375.5,167.6z"/>
			<path class="st2" d="M405.6,165c0.3,3-2,5.6-4.9,5.9s-5.6-2-5.9-4.9c-0.3-3,2-5.6,4.9-5.9C402.7,159.8,405.3,162,405.6,165z"/>
		</g>
		<g>
			<path class="st3" d="M399.1,166.8l-61.8,5.4l54.8-66.6l-56.1,4.9c-0.7,0.1-1.2-0.4-1.3-1.1l0,0c-0.1-0.7,0.4-1.2,1.1-1.3
				l61.8-5.4l-54.8,66.6l56.1-4.9c0.7-0.1,1.2,0.4,1.3,1.1l0,0C400.3,166.1,399.8,166.7,399.1,166.8z"/>
		</g>
	</g>
	<g>
		<path class="st1" d="M400.1,285.6c-0.2-0.6-0.7-1-1.4-1.1c-2.8-0.2-5.2-1.3-7.1-3.2c-2.5-2.5-3.9-6.3-4.2-10.7
			c0-0.8-0.7-1.5-1.6-1.5h0c-0.9,0-1.7,0.8-1.6,1.7c0.3,5.3,2.1,9.8,5.1,12.8c2.4,2.4,5.4,3.8,8.9,4.1c0.1,0,0.1,0,0.2,0
			C399.6,287.8,400.4,286.7,400.1,285.6z"/>
		<g>
			<g>
				<path class="st1" d="M396.9,304.8c-13.3-1.2-22.8-10.2-25.8-24.3c-0.2-0.9,0.4-1.8,1.3-1.9l0,0c0.8-0.1,1.7,0.4,1.8,1.2
					c2.7,12.7,11.2,20.8,23,21.8c12.9,1.1,26.8-7.4,29.3-28.8c0.1-0.9,0.9-1.5,1.7-1.4l0,0c0.9,0.1,1.6,0.9,1.5,1.8
					C427.2,293.3,413.9,306.3,396.9,304.8z"/>
			</g>
			<g>
				<path class="st1" d="M371.9,266.5L371.9,266.5c-0.9-0.1-1.6-0.9-1.5-1.8c2.4-20.2,15.7-33.1,32.7-31.7c15,1.3,25,12.5,26.6,29.4
					c0.1,0.9-0.6,1.7-1.5,1.7l0,0c-0.9,0.1-1.6-0.6-1.7-1.5c-1.4-15.2-10.4-25.3-23.7-26.4c-12.9-1.1-26.8,7.4-29.3,28.8
					C373.5,265.9,372.7,266.5,371.9,266.5z"/>
			</g>
			<g>
				<path class="st1" d="M397.5,296.2c-2.5-0.2-4.8-0.8-6.9-1.7c-0.9-0.4-1.2-1.4-0.8-2.2l0,0c0.4-0.7,1.3-1,2-0.7
					c2,0.9,4.2,1.4,6.6,1.5c9.8,0.6,20.1-6.4,21.2-23.1c0.6-10.3-2.9-18.7-9.5-22.7c-0.7-0.4-1-1.3-0.6-2.1l0,0
					c0.4-0.8,1.5-1.2,2.3-0.7c7.6,4.6,11.7,14,11,25.6c-1,16.2-11.1,26.9-24.5,26.1C398,296.3,397.8,296.3,397.5,296.2z"/>
			</g>
			<g>
				<path class="st1" d="M383.3,286.3c-0.8,0.5-1.8,0.3-2.3-0.5c-2.8-4.9-4.2-11.2-3.8-18c0.9-15.5,10.2-26,22.8-26.2
					c0.9,0,1.7,0.8,1.6,1.7l0,0c0,0.8-0.7,1.5-1.6,1.5c-9.3,0.2-18.7,7.2-19.7,23.2c-0.4,6.2,0.8,11.9,3.3,16.3
					C384.2,284.9,384,285.8,383.3,286.3L383.3,286.3z"/>
			</g>
			<g>
				<path class="st1" d="M405.1,285L405.1,285c-0.3-0.7,0-1.6,0.7-2c4.2-2.5,6.8-7.8,6.8-14.3c0-5.1-1.5-9.5-4.2-12.2
					c-2.1-2.1-4.8-3.2-8.1-3.2c-4.9,0-8.9,2.7-11.1,7.5c-0.3,0.7-1.2,1.1-2,0.8l0,0c-0.9-0.3-1.3-1.3-0.9-2.2
					c2.7-5.8,7.9-9.3,14-9.3c4.1,0,7.7,1.4,10.4,4.1c3.3,3.4,5.2,8.5,5.1,14.5c-0.1,7.6-3.2,13.9-8.4,17
					C406.6,286.2,405.5,285.8,405.1,285z"/>
			</g>
			<g>
				<path class="st1" d="M393.6,273.2c-0.9,0.4-1.9-0.2-2.2-1.1c-0.1-0.4-0.2-0.9-0.3-1.3c-0.9-6,2.3-11.2,7.5-12.1
					c2.7-0.5,5,0.1,6.9,1.8c0.7,0.7,0.7,1.8-0.1,2.4l-0.1,0.1c-0.6,0.4-1.4,0.3-2-0.1c-1.1-0.9-2.5-1.3-4.1-1
					c-3.9,0.7-5.4,4.8-4.9,8.5c0.1,0.4,0.1,0.7,0.2,1C394.7,272.1,394.4,272.9,393.6,273.2L393.6,273.2z"/>
			</g>
			<g>
				<path class="st1" d="M398.9,279.4C398.9,279.4,398.9,279.3,398.9,279.4c-1.1-0.1-1.7-1.3-1.1-2.3l0.1-0.2
					c0.3-0.5,0.8-0.7,1.4-0.7c0.5,0,1,0,1.5-0.1c3.4-0.6,5-3.8,5-7.1c0-0.8,0.6-1.5,1.4-1.6l0,0c0.9-0.1,1.8,0.6,1.8,1.5
					c0.1,5.2-3,9.5-7.6,10.4C400.5,279.4,399.7,279.4,398.9,279.4z"/>
			</g>
			<g>
				<path class="st1" d="M399.6,273.4c-1.7-0.1-3-1.3-3.4-2.9c-0.3-0.9,0.5-1.9,1.5-1.8l0.4,0c0.6,0,1,0.4,1.2,1
					c0.1,0.3,0.3,0.5,0.6,0.5c0.8,0.1,0.9-1,0.9-1.3c0-0.2,0-0.8-0.2-1.1c-0.3-0.4-0.4-0.8-0.4-1.2l0,0c0.1-1.4,1.9-2,2.8-0.9
					c0.7,0.9,1.1,2.1,1,3.5C403.8,271.9,401.9,273.6,399.6,273.4z"/>
			</g>
			<g>
				<path class="st1" d="M369.5,237.7L369.5,237.7c-0.9-0.1-1.5-0.9-1.5-1.7l1.2-13.9l13.9,1.2c0.9,0.1,1.5,0.9,1.5,1.7l0,0
					c-0.1,0.9-0.9,1.5-1.7,1.5l-10.7-0.9l-0.9,10.7C371.2,237.1,370.4,237.7,369.5,237.7z"/>
			</g>
			<g>
				<path class="st1" d="M435.5,243.4L435.5,243.4c-0.9-0.1-1.5-0.9-1.5-1.7l0.9-10.7l-10.7-0.9c-0.9-0.1-1.5-0.9-1.5-1.7l0,0
					c0.1-0.9,0.9-1.5,1.7-1.5l13.9,1.2l-1.2,13.9C437.1,242.8,436.3,243.5,435.5,243.4z"/>
			</g>
			<g>
				<path class="st1" d="M430.5,318l-13.9-1.2c-0.9-0.1-1.5-0.9-1.5-1.7l0,0c0.1-0.9,0.9-1.5,1.7-1.5l10.7,0.9l0.9-10.7
					c0.1-0.9,0.9-1.5,1.7-1.5l0,0c0.9,0.1,1.5,0.9,1.5,1.7L430.5,318z"/>
			</g>
			<g>
				<path class="st1" d="M375.3,313.1l-13.9-1.2l1.2-13.9c0.1-0.9,0.9-1.5,1.7-1.5l0,0c0.9,0.1,1.5,0.9,1.5,1.7l-0.9,10.7l10.7,0.9
					c0.9,0.1,1.5,0.9,1.5,1.7l0,0C377,312.6,376.2,313.2,375.3,313.1z"/>
			</g>
		</g>
	</g>
	<g>
		<path class="st4" d="M74.7,283.1L74.7,283.1c-0.5,0-1-0.4-1.1-0.9l-0.7-8.5l8.5-0.7c0.5,0,1,0.4,1.1,0.9l0,0c0,0.5-0.4,1-0.9,1.1
			l-6.6,0.6l0.6,6.6C75.7,282.6,75.3,283.1,74.7,283.1z"/>
	</g>
	<g>
		<path class="st4" d="M115.3,279.6L115.3,279.6c-0.5,0-1-0.4-1.1-0.9l-0.6-6.6l-6.6,0.6c-0.5,0-1-0.4-1.1-0.9l0,0
			c0-0.5,0.4-1,0.9-1.1l8.5-0.7l0.7,8.5C116.2,279.1,115.8,279.5,115.3,279.6z"/>
	</g>
	<g>
		<path class="st4" d="M119.5,316.3l-8.5,0.7c-0.5,0-1-0.4-1.1-0.9l0,0c0-0.5,0.4-1,0.9-1.1l6.6-0.6l-0.6-6.6c0-0.5,0.4-1,0.9-1.1
			l0,0c0.5,0,1,0.4,1.1,0.9L119.5,316.3z"/>
	</g>
	<g>
		<path class="st4" d="M85.5,319.3L77,320l-0.7-8.5c0-0.5,0.4-1,0.9-1.1l0,0c0.5,0,1,0.4,1.1,0.9l0.6,6.6l6.6-0.6
			c0.5,0,1,0.4,1.1,0.9l0,0C86.4,318.7,86,319.2,85.5,319.3z"/>
	</g>
	<path class="st0" d="M114.6,140.9L82,143.8l-0.7-7.6c-0.7-7.9,5.2-14.9,13.1-15.6c7.9-0.7,14.9,5.2,15.6,13.1l0.4,4.4l4.7-0.4
		l-0.4-4.4c-0.9-10.5-10.2-18.3-20.7-17.4c-10.5,0.9-18.3,10.2-17.4,20.7l0.7,7.7c-3.8,0.7-6.5,4.2-6.2,8.2l2.3,26.6
		c0.4,4.2,4.1,7.3,8.3,7l36.5-3.2c4.2-0.4,7.3-4.1,7-8.3l-2.3-26.6C122.5,143.7,118.8,140.6,114.6,140.9z M100.7,161.5l0.8,9.2
		c0.1,1.5-1,2.8-2.5,3c-1.5,0.1-2.8-1-3-2.5l-0.8-9.2c-1.2-0.7-2.1-2-2.2-3.5c-0.2-2.5,1.7-4.8,4.2-5c2.5-0.2,4.8,1.7,5,4.2
		C102.4,159.2,101.8,160.5,100.7,161.5z"/>
	<g>
		<path class="st1" d="M170.4,156.4l-3.3-5.4c-1.8,0.2-3.2,0.2-5,0l-3.3,5.4l-0.6-0.2c-2.1-0.6-4.2-1.4-6.1-2.5l-0.6-0.3l1.4-5.8
			c0.1-0.5,0.6-0.8,1.1-0.7l0,0c0.5,0.1,0.8,0.6,0.7,1.1l-1.1,4.6c1.4,0.8,2.9,1.4,4.5,1.9l3.2-5.3l0.6,0.1c1.9,0.3,3.8,0.3,5.6,0
			l0.6-0.1l3.2,5.3c1.5-0.5,3-1.1,4.5-1.9l-1.4-6l0.5-0.3c1.3-0.9,2.5-2.1,3.5-3.3c0.3-0.4,0.8-0.5,1.2-0.2l0,0
			c0.4,0.3,0.5,0.9,0.2,1.2c-1,1.2-2.1,2.4-3.4,3.3l1.5,6.1l-0.6,0.3c-1.9,1.1-4,2-6.1,2.5L170.4,156.4z M150.2,144.7
			c-0.3-0.3-0.5-0.6-0.8-1l-6.1,1.5l-0.3-0.6c-1.1-1.9-2-4-2.5-6.1l-0.2-0.6l5.4-3.3c-0.1-0.9-0.2-1.7-0.2-2.5
			c0-0.8,0.1-1.6,0.2-2.5l-5.4-3.3l0.2-0.6c0.6-2.1,1.4-4.2,2.5-6.1l0.3-0.6l6.1,1.5c1-1.3,2.2-2.5,3.6-3.6l-1.1-4.6
			c-0.1-0.5,0.2-0.9,0.6-1.1l0,0c0.5-0.1,0.9,0.2,1.1,0.6l1.4,5.8l-0.5,0.3c-1.5,1.1-2.9,2.5-4,4l-0.3,0.5l-6-1.4
			c-0.8,1.4-1.4,2.9-1.9,4.5l5.3,3.2l-0.1,0.6c-0.2,1-0.2,2-0.2,2.8c0,0.9,0.1,1.8,0.2,2.8l0.1,0.6l-5.3,3.2c0.5,1.5,1.1,3,1.9,4.5
			l6-1.4l0.3,0.5c0.3,0.5,0.7,0.9,1,1.3c0.3,0.3,0.3,0.9,0,1.2l0,0C151.1,145.1,150.5,145,150.2,144.7z M186,145.1l-2.3-0.5
			c-0.5-0.1-0.8-0.6-0.7-1.1l0,0c0.1-0.5,0.6-0.8,1.1-0.7l1,0.2c0.8-1.4,1.4-2.9,1.9-4.5l-5.3-3.2l0.1-0.6c0.2-1,0.2-2,0.2-2.8
			c0-0.9-0.1-1.8-0.2-2.8l-0.1-0.6l5.3-3.2c-0.5-1.5-1.1-3-1.9-4.5l-6,1.4l-0.3-0.5c-1.1-1.5-2.5-2.9-4-4l-0.5-0.3l1.4-6
			c-1.4-0.8-2.9-1.4-4.5-1.9L168,115l-0.6-0.1c-1.9-0.3-3.8-0.3-5.6,0l-0.6,0.1l-3.2-5.3c-0.2,0.1-0.4,0.1-0.6,0.2
			c-0.4,0.1-0.9-0.1-1.1-0.5l0,0c-0.2-0.5,0.1-1,0.5-1.1c0.4-0.1,0.9-0.3,1.3-0.4l0.6-0.2l3.3,5.4c1.8-0.2,3.2-0.2,5,0l3.3-5.4
			l0.6,0.2c2.1,0.6,4.2,1.4,6.1,2.5l0.6,0.3l-1.5,6.1c1.3,1,2.5,2.2,3.6,3.6l6.1-1.5l0.3,0.6c1.1,1.9,2,4,2.5,6.1l0.2,0.6l-5.4,3.3
			c0.1,0.9,0.2,1.7,0.2,2.5c0,0.8-0.1,1.6-0.2,2.5l5.4,3.3l-0.2,0.6c-0.6,2.1-1.4,4.2-2.5,6.1L186,145.1z M164.4,140.6
			c-4.5-0.1-8.2-3.8-8.3-8.3c-0.1-4.5,3.2-8.3,7.6-8.8c0.5-0.1,1,0.4,1,0.9v0c0,0.4-0.3,0.8-0.8,0.9c-3.8,0.4-6.7,4.1-5.9,8.1
			c0.5,2.7,2.7,4.8,5.3,5.3c4.4,0.9,8.2-2.5,8.2-6.7c0-1.4-0.4-2.8-1.2-3.9c-0.3-0.4-0.2-0.9,0.1-1.1l0,0c0.4-0.3,1-0.3,1.3,0.2
			c1,1.4,1.5,3.1,1.5,4.9C173.2,136.8,169.2,140.7,164.4,140.6z"/>
	</g>
	<g>
		<path class="st3" d="M108.3,229.6l-2.1-3.5c-1.2,0.2-2.1,0.2-3.3,0l-2.1,3.5l-0.4-0.1c-1.4-0.4-2.7-0.9-3.9-1.6l-0.4-0.2l0.9-3.8
			c0.1-0.3,0.4-0.5,0.7-0.4l0,0c0.3,0.1,0.5,0.4,0.4,0.7l-0.7,2.9c0.9,0.5,1.9,0.9,2.9,1.2l2.1-3.4l0.4,0.1c1.2,0.2,2.4,0.2,3.6,0
			l0.4-0.1l2.1,3.4c1-0.3,2-0.7,2.9-1.2l-0.9-3.9l0.3-0.2c0.8-0.6,1.6-1.3,2.2-2.1c0.2-0.2,0.5-0.3,0.8-0.1l0,0
			c0.3,0.2,0.3,0.6,0.1,0.8c-0.6,0.8-1.4,1.5-2.2,2.1l0.9,4l-0.4,0.2c-1.2,0.7-2.6,1.3-3.9,1.6L108.3,229.6z M95.3,222
			c-0.2-0.2-0.4-0.4-0.5-0.6l-4,0.9l-0.2-0.4c-0.7-1.2-1.3-2.6-1.6-3.9l-0.1-0.4l3.5-2.1c-0.1-0.6-0.1-1.1-0.1-1.6
			c0-0.5,0-1,0.1-1.6l-3.5-2.1l0.1-0.4c0.4-1.4,0.9-2.7,1.6-3.9l0.2-0.4l4,0.9c0.7-0.9,1.4-1.6,2.3-2.3l-0.7-3
			c-0.1-0.3,0.1-0.6,0.4-0.7l0,0c0.3-0.1,0.6,0.1,0.7,0.4l0.9,3.7l-0.3,0.2c-1,0.7-1.9,1.6-2.6,2.6l-0.2,0.3l-3.9-0.9
			c-0.5,0.9-0.9,1.9-1.2,2.9l3.4,2.1l-0.1,0.4c-0.1,0.7-0.2,1.3-0.2,1.8c0,0.6,0.1,1.2,0.2,1.8l0.1,0.4l-3.4,2.1
			c0.3,1,0.7,2,1.2,2.9l3.9-0.9l0.2,0.3c0.2,0.3,0.4,0.6,0.7,0.8c0.2,0.2,0.2,0.6,0,0.8l0,0C95.8,222.3,95.5,222.2,95.3,222z
			 M118.3,222.3l-1.5-0.3c-0.3-0.1-0.5-0.4-0.4-0.7l0,0c0.1-0.3,0.4-0.5,0.7-0.4l0.6,0.2c0.5-0.9,0.9-1.9,1.2-2.9l-3.4-2.1l0.1-0.4
			c0.1-0.7,0.2-1.3,0.2-1.8c0-0.6-0.1-1.2-0.2-1.8l-0.1-0.4l3.4-2.1c-0.3-1-0.7-2-1.2-2.9l-3.9,0.9l-0.2-0.3c-0.7-1-1.6-1.9-2.6-2.6
			l-0.3-0.2l0.9-3.9c-0.9-0.5-1.9-0.9-2.9-1.2l-2.1,3.4l-0.4-0.1c-1.2-0.2-2.4-0.2-3.6,0l-0.4,0.1l-2.1-3.4c-0.1,0-0.3,0.1-0.4,0.1
			c-0.3,0.1-0.6-0.1-0.7-0.3l0,0c-0.1-0.3,0-0.6,0.3-0.7c0.3-0.1,0.6-0.2,0.9-0.3l0.4-0.1l2.1,3.5c1.2-0.2,2.1-0.2,3.3,0l2.1-3.5
			l0.4,0.1c1.4,0.4,2.7,0.9,3.9,1.6l0.4,0.2l-0.9,4c0.9,0.7,1.6,1.4,2.3,2.3l4-0.9l0.2,0.4c0.7,1.2,1.3,2.6,1.6,3.9l0.1,0.4
			l-3.5,2.1c0.1,0.6,0.1,1.1,0.1,1.6c0,0.5,0,1-0.1,1.6l3.5,2.1l-0.1,0.4c-0.4,1.4-0.9,2.7-1.6,3.9L118.3,222.3z M104.4,219.4
			c-2.9-0.1-5.3-2.5-5.4-5.4c-0.1-2.9,2.1-5.3,4.9-5.7c0.3,0,0.6,0.2,0.6,0.6l0,0c0,0.3-0.2,0.5-0.5,0.6c-2.5,0.3-4.3,2.6-3.8,5.3
			c0.3,1.7,1.7,3.1,3.4,3.4c2.8,0.5,5.3-1.6,5.3-4.3c0-0.9-0.3-1.8-0.8-2.5c-0.2-0.2-0.1-0.6,0.1-0.7l0,0c0.3-0.2,0.7-0.2,0.8,0.1
			c0.6,0.9,1,2,1,3.2C110.1,217,107.5,219.5,104.4,219.4z"/>
	</g>
</g>
<g id="Background_Simple" class="st5">
	<g class="st6">
		<path class="st7" d="M76.7,206.6c11.3-51.1,62-89.3,99.3-89.4c42-0.2,77.8,32,106,34.8c24.9,2.5,55.7-34.1,100-24.8
			c36,7.5,56,61.3,50,95.5c-11.1,63.4-40,101.2-80.3,108.5c-17.7,3.2-26-2.4-34.7-0.8c-38.6,7.2-64.8,55.7-148,60
			C104.9,393.7,52.2,317.4,76.7,206.6z"/>
		<path class="st8" d="M76.7,206.6c11.3-51.1,62-89.3,99.3-89.4c42-0.2,77.8,32,106,34.8c24.9,2.5,55.7-34.1,100-24.8
			c36,7.5,56,61.3,50,95.5c-11.1,63.4-40,101.2-80.3,108.5c-17.7,3.2-26-2.4-34.7-0.8c-38.6,7.2-64.8,55.7-148,60
			C104.9,393.7,52.2,317.4,76.7,206.6z"/>
	</g>
</g>
<g id="Shadow">
	<ellipse id="_x3C_Path_x3E__359_" class="st2" cx="250" cy="415.7" rx="193.9" ry="11.3"/>
</g>
<g id="Device">
	<g>
		<path class="st9" d="M363.4,145.8h-32.6l-23,263.2h32.6c9.3,0,17.5-7.5,18.3-16.8l20.1-229.7C379.6,153.4,372.7,145.8,363.4,145.8
			z"/>
		<path class="st9" d="M356.8,145.8H246.6c-9.3,0-17.5,7.5-18.3,16.8l-20.1,229.7c-0.8,9.3,6.1,16.8,15.3,16.8h110.2
			c9.3,0,17.5-7.5,18.3-16.8l20.1-229.7C372.9,153.4,366.1,145.8,356.8,145.8z"/>
		<path class="st10" d="M356.8,145.8H246.6c-9.3,0-17.5,7.5-18.3,16.8l-20.1,229.7c-0.8,9.3,6.1,16.8,15.3,16.8h110.2
			c9.3,0,17.5-7.5,18.3-16.8l20.1-229.7C372.9,153.4,366.1,145.8,356.8,145.8z"/>
		<path class="st11" d="M356.3,151.2h-29.1c-1.7,0-3.3,1.1-4,2.8l0,0c-2.3,6.1-8.3,10.2-14.6,10.2h-17.2c-6.3,0-11.6-4.2-12.8-10.2
			v0c-0.3-1.6-1.8-2.8-3.5-2.8h-29.1c-6.3,0-11.9,5.1-12.4,11.4l-20.1,229.7c-0.6,6.3,4.1,11.4,10.4,11.4h110.2
			c6.3,0,11.9-5.1,12.4-11.4l20.1-229.7C367.3,156.3,362.6,151.2,356.3,151.2z"/>
		<path class="st12" d="M328.9,276h-77.1c-2.3,0-4-1.9-3.8-4.1l0.4-4.4c0.2-2.3,2.2-4.1,4.5-4.1H330c2.3,0,4,1.9,3.8,4.1l-0.4,4.4
			C333.2,274.1,331.2,276,328.9,276z"/>
		<path class="st12" d="M327.2,295h-77.1c-2.3,0-4-1.9-3.8-4.1l0.4-4.4c0.2-2.3,2.2-4.1,4.5-4.1h77.1c2.3,0,4,1.9,3.8,4.1l-0.4,4.4
			C331.5,293.1,329.5,295,327.2,295z"/>
		<path class="st13" d="M305.5,155.5c-0.2,2.5-2.5,4.6-5,4.6c-2.5,0-4.4-2.1-4.2-4.6c0.2-2.5,2.5-4.6,5-4.6
			C303.8,150.9,305.7,153,305.5,155.5z"/>
		<path class="st13" d="M303.4,155.5c-0.1,1.4-1.3,2.5-2.7,2.5c-1.4,0-2.4-1.1-2.3-2.5c0.1-1.4,1.3-2.5,2.7-2.5
			C302.5,153,303.5,154.1,303.4,155.5z"/>
		<g>
			<g class="st14">
				<path class="st12" d="M342.8,163.2L342.8,163.2c-0.7,0-1.3-0.6-1.2-1.3l0.2-2.5c0.1-0.7,0.7-1.3,1.5-1.3l0,0
					c0.7,0,1.3,0.6,1.2,1.3l-0.2,2.5C344.2,162.6,343.5,163.2,342.8,163.2z"/>
				<path class="st12" d="M353.5,163.2L353.5,163.2c-0.7,0-1.3-0.6-1.2-1.3l0.5-5.8c0.1-0.7,0.7-1.3,1.5-1.3l0,0
					c0.7,0,1.3,0.6,1.2,1.3l-0.5,5.8C354.9,162.6,354.3,163.2,353.5,163.2z"/>
				<path class="st12" d="M348.1,163.2L348.1,163.2c-0.7,0-1.3-0.6-1.2-1.3l0.4-4.1c0.1-0.7,0.7-1.3,1.5-1.3l0,0
					c0.7,0,1.3,0.6,1.2,1.3l-0.4,4.1C349.5,162.6,348.9,163.2,348.1,163.2z"/>
			</g>
			<g class="st14">
				<path class="st12" d="M250.6,163.2h-6.8c-0.4,0-0.7-0.3-0.7-0.8l0.3-3.6c0-0.4,0.4-0.8,0.8-0.8h6.8c0.4,0,0.7,0.3,0.7,0.8
					l-0.3,3.6C251.4,162.8,251.1,163.2,250.6,163.2z"/>
				<path class="st12" d="M253.8,162.2L253.8,162.2c-0.4,0-0.7-0.3-0.7-0.8l0.1-1.7c0-0.4,0.4-0.8,0.8-0.8l0,0
					c0.4,0,0.7,0.3,0.7,0.8l-0.1,1.7C254.6,161.8,254.2,162.2,253.8,162.2z"/>
			</g>
		</g>
		
			<ellipse transform="matrix(0.7224 -0.6915 0.6915 0.7224 -73.4882 266.2137)" class="st12" cx="294.8" cy="224.6" rx="33.7" ry="30.9"/>
		<g>
			<path class="st9" d="M294.9,223.4c-8.5,0-15.6,3.2-16.3,10.2l-0.7,7.8h30.7l0.7-7.8C310,226.6,303.4,223.4,294.9,223.4z"/>
			<path class="st9" d="M295.2,220.2c3.9,0,5.8-3.2,6.1-7.1c0.3-3.9-0.9-7.1-4.9-7.1c-3.9,0-5.8,3.2-6.1,7.1
				C290,217,291.3,220.2,295.2,220.2z"/>
		</g>
		<g>
			<path class="st9" d="M325.4,269.4c-2.1,0-3.9,0.8-4,2.5l-0.2,1.9h7.6l0.2-1.9C329.1,270.2,327.5,269.4,325.4,269.4z"/>
			<path class="st9" d="M325.4,268.6c1,0,1.4-0.8,1.5-1.8c0.1-1-0.2-1.8-1.2-1.8c-1,0-1.4,0.8-1.5,1.8
				C324.1,267.8,324.5,268.6,325.4,268.6z"/>
		</g>
		<path class="st9" d="M302,314h-30c-3.5,0-6.1-2.8-5.8-6.3v0c0.3-3.5,3.4-6.3,6.9-6.3h30c3.5,0,6.1,2.8,5.8,6.3v0
			C308.6,311.2,305.5,314,302,314z"/>
		<path class="st9" d="M298.4,384.8h-32.1c-3.7,0-6.4-3-6.1-6.7l2-23.4c0.3-3.7,3.6-6.7,7.3-6.7h32.1c3.7,0,6.4,3,6.1,6.7l-2,23.4
			C305.3,381.8,302.1,384.8,298.4,384.8z"/>
		<g class="st15">
			<path class="st12" d="M288.5,360.6c0.2-2.2-1.5-4-3.7-4c-2.2,0-4.2,1.8-4.4,4c-0.1,1.3,0.4,2.5,1.4,3.2l-0.7,8.1
				c-0.1,1.3,0.9,2.4,2.2,2.4c1.3,0,2.5-1.1,2.6-2.4l0.7-8.1C287.6,363.1,288.4,361.9,288.5,360.6z"/>
		</g>
		<g>
			<path class="st9" d="M301.9,352.9h-4.1l1-11.6c0.6-7-4.6-12.6-11.5-12.6s-13.1,5.7-13.7,12.6l-1,11.6h-4.1l1-11.6
				c0.8-9.2,9-16.8,18.2-16.8s16.1,7.5,15.3,16.8L301.9,352.9z"/>
		</g>
		<path class="st9" d="M325.9,287.1l0.1-1.1c0.1-1.1-0.7-2.1-1.9-2.1c-1.1,0-2.1,0.9-2.2,2.1l-0.1,1.1c-0.5,0-0.9,0.4-0.9,0.8
			l-0.3,3c0,0.5,0.3,0.8,0.8,0.8h4.1c0.5,0,0.9-0.4,0.9-0.8l0.3-3C326.7,287.5,326.3,287.1,325.9,287.1z M324,284.5
			c0.9,0,1.5,0.7,1.4,1.6l-0.1,1.1h-3.1l0.1-1.1C322.4,285.2,323.2,284.5,324,284.5z"/>
		<g>
			<path class="st16" d="M263.8,288.3l-1.4-0.3c-0.2,0-0.3-0.2-0.2-0.4l0.6-1.4c0.1-0.3-0.2-0.5-0.5-0.3l-1.1,1.1
				c-0.1,0.1-0.3,0.1-0.4,0l-0.9-1.1c-0.2-0.2-0.6,0-0.5,0.3l0.4,1.4c0,0.2-0.1,0.3-0.3,0.4l-1.5,0.3c-0.3,0.1-0.4,0.5-0.1,0.6
				l1.4,0.3c0.2,0,0.3,0.2,0.2,0.4L259,291c-0.1,0.3,0.2,0.5,0.5,0.3l1.1-1.1c0.1-0.1,0.3-0.1,0.4,0l0.9,1.1c0.2,0.2,0.6,0,0.5-0.3
				l-0.4-1.4c0-0.2,0.1-0.3,0.3-0.4l1.5-0.3C264.1,288.8,264.2,288.4,263.8,288.3z"/>
			<path class="st16" d="M273.3,288.3l-1.4-0.3c-0.2,0-0.3-0.2-0.2-0.4l0.6-1.4c0.1-0.3-0.2-0.5-0.5-0.3l-1.1,1.1
				c-0.1,0.1-0.3,0.1-0.4,0l-0.9-1.1c-0.2-0.2-0.6,0-0.5,0.3l0.4,1.4c0,0.2-0.1,0.3-0.3,0.4l-1.5,0.3c-0.3,0.1-0.4,0.5-0.1,0.6
				l1.4,0.3c0.2,0,0.3,0.2,0.2,0.4l-0.6,1.4c-0.1,0.3,0.2,0.5,0.5,0.3l1.1-1.1c0.1-0.1,0.3-0.1,0.4,0l0.9,1.1c0.2,0.2,0.6,0,0.5-0.3
				l-0.4-1.4c0-0.2,0.1-0.3,0.3-0.4l1.5-0.3C273.6,288.8,273.6,288.4,273.3,288.3z"/>
			<path class="st16" d="M282.8,288.3l-1.4-0.3c-0.2,0-0.3-0.2-0.2-0.4l0.6-1.4c0.1-0.3-0.2-0.5-0.5-0.3l-1.1,1.1
				c-0.1,0.1-0.3,0.1-0.4,0l-0.9-1.1c-0.2-0.2-0.6,0-0.5,0.3l0.4,1.4c0,0.2-0.1,0.3-0.3,0.4l-1.5,0.3c-0.3,0.1-0.4,0.5-0.1,0.6
				l1.4,0.3c0.2,0,0.3,0.2,0.2,0.4l-0.6,1.4c-0.1,0.3,0.2,0.5,0.5,0.3l1.1-1.1c0.1-0.1,0.3-0.1,0.4,0l0.9,1.1c0.2,0.2,0.6,0,0.5-0.3
				l-0.4-1.4c0-0.2,0.1-0.3,0.3-0.4l1.5-0.3C283,288.8,283.1,288.4,282.8,288.3z"/>
			<path class="st16" d="M292.2,288.3l-1.4-0.3c-0.2,0-0.3-0.2-0.2-0.4l0.6-1.4c0.1-0.3-0.2-0.5-0.5-0.3l-1.1,1.1
				c-0.1,0.1-0.3,0.1-0.4,0l-0.9-1.1c-0.2-0.2-0.6,0-0.5,0.3l0.4,1.4c0,0.2-0.1,0.3-0.3,0.4l-1.5,0.3c-0.3,0.1-0.4,0.5-0.1,0.6
				l1.4,0.3c0.2,0,0.3,0.2,0.2,0.4l-0.6,1.4c-0.1,0.3,0.2,0.5,0.5,0.3l1.1-1.1c0.1-0.1,0.3-0.1,0.4,0l0.9,1.1c0.2,0.2,0.6,0,0.5-0.3
				l-0.4-1.4c0-0.2,0.1-0.3,0.3-0.4l1.5-0.3C292.5,288.8,292.5,288.4,292.2,288.3z"/>
			<path class="st16" d="M301.7,288.3l-1.4-0.3c-0.2,0-0.3-0.2-0.2-0.4l0.6-1.4c0.1-0.3-0.2-0.5-0.5-0.3l-1.1,1.1
				c-0.1,0.1-0.3,0.1-0.4,0l-0.9-1.1c-0.2-0.2-0.6,0-0.5,0.3l0.4,1.4c0,0.2-0.1,0.3-0.3,0.4l-1.5,0.3c-0.3,0.1-0.4,0.5-0.1,0.6
				l1.4,0.3c0.2,0,0.3,0.2,0.2,0.4l-0.6,1.4c-0.1,0.3,0.2,0.5,0.5,0.3l1.1-1.1c0.1-0.1,0.3-0.1,0.4,0l0.9,1.1c0.2,0.2,0.6,0,0.5-0.3
				l-0.4-1.4c0-0.2,0.1-0.3,0.3-0.4l1.5-0.3C302,288.8,302,288.4,301.7,288.3z"/>
			<path class="st16" d="M311.2,288.3l-1.4-0.3c-0.2,0-0.3-0.2-0.2-0.4l0.6-1.4c0.1-0.3-0.2-0.5-0.5-0.3l-1.1,1.1
				c-0.1,0.1-0.3,0.1-0.4,0l-0.9-1.1c-0.2-0.2-0.6,0-0.5,0.3l0.4,1.4c0,0.2-0.1,0.3-0.3,0.4l-1.5,0.3c-0.3,0.1-0.4,0.5-0.1,0.6
				l1.4,0.3c0.2,0,0.3,0.2,0.2,0.4l-0.6,1.4c-0.1,0.3,0.2,0.5,0.5,0.3l1.1-1.1c0.1-0.1,0.3-0.1,0.4,0l0.9,1.1c0.2,0.2,0.6,0,0.5-0.3
				l-0.4-1.4c0-0.2,0.1-0.3,0.3-0.4l1.5-0.3C311.4,288.8,311.5,288.4,311.2,288.3z"/>
		</g>
		<g>
			<path class="st16" d="M288.4,267.6h-17.8c-1.1,0-2.1,0.9-2.2,2c-0.1,1.1,0.7,2,1.8,2H288c1.1,0,2.1-0.9,2.2-2
				C290.3,268.5,289.5,267.6,288.4,267.6z"/>
			<path class="st16" d="M306.4,267.6h-10.3c-1.1,0-2.1,0.9-2.2,2c-0.1,1.1,0.7,2,1.8,2H306c1.1,0,2.1-0.9,2.2-2
				C308.3,268.5,307.5,267.6,306.4,267.6z"/>
		</g>
		<path class="st16" d="M320,358.3c-6.7,2.7-12.6,6.6-16.6,11c-2.4-2-5.7-3.4-9.7-4l-0.5-0.1l-0.2,2.4l0.3,0.1
			c4,1.5,7.2,4.2,9.3,7.7l0.3,0.6l0.4-0.6c4.1-6.6,10.1-12.1,16.9-15.6l0.2-0.1l0.1-1.6L320,358.3z"/>
	</g>
</g>
<g id="Policy">
	<path class="st17" d="M230.6,161.4c-1.2,2.2-2.1,4.6-2.3,7.2l-14.9,170.2h46.1l9.3-35.5l-3-35.5l9.3-35.5l-3-35.5l9.3-35.5H230.6z"
		/>
	<g>
		<g>
			<polygon class="st9" points="268,186.9 277.2,151.4 160.7,151.4 151.4,186.9 154.5,222.4 145.2,257.9 148.3,293.3 139,328.8 
				255.5,328.8 264.8,293.3 261.7,257.9 271,222.4 			"/>
			<polygon class="st18" points="268.1,186.9 277.4,151.4 160.9,151.4 151.6,186.9 154.6,222.4 145.4,257.9 148.4,293.3 
				139.2,328.8 255.7,328.8 265,293.3 261.9,257.9 271.2,222.4 			"/>
			<polygon class="st19" points="268,186.9 151.4,186.9 160.7,151.4 277.2,151.4 			"/>
			<polygon class="st19" points="261.7,257.9 145.2,257.9 154.5,222.4 271,222.4 			"/>
			<polygon class="st19" points="255.5,328.8 139,328.8 148.3,293.3 264.8,293.3 			"/>
		</g>
		<path class="st17" d="M252.4,201.7c-1,0.3-2.3,0.5-3.7,0.5c-2.1,0-3.9-0.4-4.9-1c-0.3-0.2-0.6-0.3-0.9-0.3l0,0
			c-0.3,0-0.6,0.1-0.8,0.2c0,0,0,0-0.1,0h0l0,0c0,0,0,0,0,0c-0.4,0.2-0.9,0.4-1.4,0.6c-1,0.3-2.1,0.4-3.4,0.4c-0.3,0-0.7,0-1,0
			c-1-0.1-1.9-0.2-2.7-0.5c-0.1,0-0.3-0.1-0.4-0.1c-0.9-0.1-1.7,0.6-1.7,1.6v0v1.1H186c-3.5,0-6.3,2.8-6.3,6.3v6.4
			c0,3.5,2.8,6.3,6.3,6.3h51.5c0.1,0,0.2,0,0.3,0c0.6,0.5,1.1,0.9,1.7,1.4c0.7,0.6,1.5,1.1,2.3,1.7c0.6,0.4,1.3,0.4,1.9,0
			c6.5-4.7,10.6-7.9,10.6-16.8v-6.4C254.5,202.1,253.4,201.4,252.4,201.7z"/>
		<g>
			<path class="st9" d="M236.5,219.9H185c-3.5,0-6.3-2.8-6.3-6.3v-6.4c0-3.5,2.8-6.3,6.3-6.3h51.5c3.5,0,6.3,2.8,6.3,6.3v6.4
				C242.9,217,240.1,219.9,236.5,219.9z"/>
			<g>
				<g>
					<path class="st9" d="M247.7,198.7c-2.1,0-3.9-0.4-4.9-1c-0.6-0.3-1.2-0.3-1.8,0c-1,0.6-2.8,1-4.9,1c-1.4,0-2.7-0.2-3.7-0.5
						c-1-0.3-2.1,0.4-2.1,1.5v6.4c0,8.9,4.2,12.1,10.6,16.8c0.6,0.4,1.3,0.4,1.9,0c6.5-4.7,10.6-7.9,10.6-16.8v-6.4
						c0-1.1-1.1-1.9-2.1-1.5C250.4,198.5,249.1,198.7,247.7,198.7z"/>
					<path class="st20" d="M247.7,198.7c-2.1,0-3.9-0.4-4.9-1c-0.6-0.3-1.2-0.3-1.8,0c-1,0.6-2.8,1-4.9,1c-1.4,0-2.7-0.2-3.7-0.5
						c-1-0.3-2.1,0.4-2.1,1.5v6.4c0,8.9,4.2,12.1,10.6,16.8c0.6,0.4,1.3,0.4,1.9,0c6.5-4.7,10.6-7.9,10.6-16.8v-6.4
						c0-1.1-1.1-1.9-2.1-1.5C250.4,198.5,249.1,198.7,247.7,198.7z"/>
					<path class="st21" d="M241,197.7c-1,0.6-2.8,1-4.9,1c-1.4,0-2.7-0.2-3.7-0.5c-1-0.3-2.1,0.4-2.1,1.5v6.4
						c0,8.9,4.2,12.1,10.6,16.8c0.3,0.2,0.6,0.3,1,0.3v-25.9C241.6,197.4,241.3,197.5,241,197.7z"/>
				</g>
				<path class="st16" d="M251.2,204.4c-4.2,1.7-7.8,4.3-10.1,7.1c-1.6-1.3-3.9-2.2-6.5-2.6l-0.3,0v1.5l0.2,0.1c2.7,1,4.9,2.7,6.5,5
					l0.2,0.4l0.2-0.4c2.3-4.3,5.9-7.9,10.1-10.1l0.1-0.1v-1L251.2,204.4z"/>
			</g>
		</g>
		<g>
			<path class="st7" d="M275.2,161.4h-4.4c-2.5,0-4.3-2-4.1-4.4l0.4-4.4c0.2-2.5,2.4-4.4,4.8-4.4h4.4c2.5,0,4.3,2,4.1,4.4l-0.4,4.4
				C279.8,159.4,277.6,161.4,275.2,161.4z"/>
			<polygon class="st12" points="277,152.5 276,151.4 273.6,153.7 271.6,151.4 270.4,152.5 272.5,154.7 270.1,156.9 271,158 
				273.4,155.8 275.5,158 276.6,156.9 274.6,154.7 			"/>
		</g>
	</g>
</g>
<g id="Character">
	<g>
		<g>
			<path class="st22" d="M176.4,199.5c2.6,2.8,5,5.7,7.4,8.6c2.4,2.9,4.8,5.9,7.1,8.9c0.1,0.1,0.1,0.1,0.1,0.1c0,0,0,0,0,0.1
				c0,0,0,0.1,0.1,0.1c0,0.1,0.1,0.1,0.2,0.2c0.1,0.1,0.3,0.2,0.6,0.3c0.1,0,0.2,0,0.3,0c0.1,0,0.1,0,0.2,0c0,0,0.1,0,0.1,0
				c0.1,0,0,0,0.2-0.1l2.5-1.4c3.4-1.8,6.7-3.5,10.3-5.1l2.9,3.6c-2.8,2.6-5.8,5.8-8.7,8.2l-2.2,1.8c-0.1,0.1-0.3,0.2-0.4,0.3
				c-0.2,0.1-0.3,0.2-0.5,0.3c-0.4,0.2-0.7,0.4-1.1,0.6c-0.8,0.3-1.6,0.5-2.4,0.7c-1.7,0.2-3.4,0.1-5-0.5c-0.8-0.3-1.6-0.7-2.3-1.2
				c-0.4-0.2-0.7-0.5-1-0.8c-0.2-0.1-0.3-0.3-0.5-0.4l-0.4-0.4c-2.6-2.7-5.3-5.5-7.8-8.2c-2.6-2.8-5.1-5.6-7.5-8.5L176.4,199.5z"/>
			<path class="st22" d="M204,213.4l2.3-7.5l6.1,3.1c0,0-0.9,5.5-5.4,6.4L204,213.4z"/>
			<polygon class="st22" points="208.8,203.8 214.3,205.3 212.5,209 206.3,205.9 			"/>
		</g>
		<g>
			<path class="st22" d="M144.1,201.5c-0.7,3.2-1.5,6.3-2.3,9.5c-0.9,3.1-1.8,6.3-2.7,9.4l-0.4,1.2l-0.2,0.6c0,0.1-0.1,0.2-0.1,0.2
				c-0.1,0.3-0.2,0.6-0.2,1c0,0.7,0.1,1.4,0.6,2.1c0,0.1,0.4,0.5,0.6,0.8l0.8,0.9l1.6,1.8c1.1,1.2,2.2,2.5,3.2,3.8l-3.5,4
				c-1.4-0.8-2.8-1.7-4.2-2.6l-2.1-1.4l-1-0.7c-0.3-0.2-0.6-0.4-1.2-0.9c-1.9-1.6-3.3-3.9-3.8-6.4c-0.3-1.3-0.3-2.6-0.2-3.9
				c0-0.3,0.1-0.7,0.1-0.9l0.1-0.6l0.2-1.2c0.6-3.2,1.2-6.4,1.8-9.6c0.7-3.2,1.4-6.4,2.2-9.5L144.1,201.5z"/>
			<path class="st22" d="M141.6,232.3l4.1-2.1l1.8,7c0,0-3.3,1.3-5.9-0.4L141.6,232.3z"/>
			<polygon class="st22" points="151.5,228 151.6,234.4 147,237.4 145.4,230.4 			"/>
		</g>
		<path class="st16" d="M164.9,168.5c0.1,0.5,0.4,0.8,0.8,0.8c0.3-0.1,0.5-0.5,0.4-1s-0.4-0.8-0.8-0.8
			C165,167.5,164.8,168,164.9,168.5z"/>
		<path class="st23" d="M165.3,169.3c0,0,1.7,2.6,3.2,3.8c-0.7,1-2.3,0.9-2.3,0.9L165.3,169.3z"/>
		<path class="st16" d="M162.6,166.1c-0.1,0-0.1,0-0.2-0.1c-0.1-0.1-0.1-0.3,0-0.4c1.1-1.2,2.5-1,2.5-1c0.2,0,0.3,0.2,0.2,0.3
			c0,0.2-0.2,0.3-0.3,0.2l0,0c0,0-1.1-0.2-2,0.8C162.7,166.1,162.6,166.1,162.6,166.1z"/>
		<path class="st22" d="M150.5,175.4c1.1,4.6,2.2,13-1.7,16.1c0,0,1.5,4.7,12,4.7c11.5,0,5.5-3,5.5-3c-6.3-1.2-6.1-6.7-5-10.2
			L150.5,175.4z"/>
		<path class="st16" d="M147.6,192.3c-0.7-1.3-1.4-2.7,0.1-3.2c1.7-0.5,12.7-1.4,16-0.5c-1,1.8,0.7,3.9,0.7,3.9L147.6,192.3z"/>
		<polygon class="st22" points="156.7,406.9 163.9,406.9 164.6,392.4 157.4,392.4 		"/>
		<polygon class="st22" points="110.9,404.9 118.2,405.3 122.7,391 115.4,390.6 		"/>
		<path class="st16" d="M118,404.7l-6.9-1.5c-0.3-0.1-0.5,0.1-0.6,0.3l-2.4,5.2c-0.2,0.5,0.1,1.2,0.7,1.3c2.4,0.5,3.6,0.6,6.6,1.2
			c1.9,0.4,6.1,1.4,8.6,2c2.5,0.5,3.5-1.9,2.5-2.4c-4.5-2.1-6.4-3.9-7.6-5.6C118.7,405,118.4,404.8,118,404.7z"/>
		<path class="st16" d="M163.5,406.2h-6.8c-0.3,0-0.5,0.2-0.5,0.4l-1.2,5.6c-0.1,0.6,0.3,1.1,0.9,1.1c2.5,0,6-0.2,9.1-0.2
			c3.6,0,6.8,0.2,11,0.2c2.6,0,3.3-2.6,2.2-2.8c-4.9-1.1-8.9-1.2-13.1-3.8C164.6,406.4,164.1,406.2,163.5,406.2z"/>
		<path class="st16" d="M135.7,193.6c-5.4,2.6-6.9,18.3-6.9,18.3l13.5,6.2c0,0,3.3-4.9,3.6-12.7C146.1,197.3,141.3,191,135.7,193.6z
			"/>
		<path class="st24" d="M143,203.3c-2.4,3.8-2.2,9.6-1.4,14.6l0.6,0.3c0,0,3.3-4.9,3.6-12.7c0-0.5,0-1,0-1.4L143,203.3z"/>
		<g>
			<path class="st7" d="M173.3,193.2c0,0,6.7,7.5,0.4,54.2c-10.1,0-28.6,0-33.5,0c-0.2-5.1,3-30.3-2-54.5c0,0,5.7-1.2,11.2-1.4
				c4.3-0.2,10.5-0.3,14.3,0C168.6,191.9,173.3,193.2,173.3,193.2z"/>
			<path class="st25" d="M173.3,193.2c0,0,6.7,7.5,0.4,54.2c-10.1,0-28.6,0-33.5,0c-0.2-5.1,3-30.3-2-54.5c0,0,5.7-1.2,11.2-1.4
				c4.3-0.2,10.5-0.3,14.3,0C168.6,191.9,173.3,193.2,173.3,193.2z"/>
		</g>
		<path class="st17" d="M176.2,207.5l-0.1-0.1l-6.7-3.6c-0.7,10.3,3.9,16.7,6.6,19.5C176.5,216.8,176.5,211.6,176.2,207.5z"/>
		<polygon class="st17" points="164.6,392.4 164.3,399.9 157,399.9 157.4,392.4 		"/>
		<polygon class="st17" points="115.4,390.6 122.7,391 120.4,398.4 113.1,398 		"/>
		<path class="st22" d="M148.2,170.8c1.6,6,2.2,9.6,6,12.1c5.6,3.8,12.5-0.6,12.7-6.9c0.2-5.7-2.5-14.6-8.9-15.8
			C151.6,159,146.6,164.8,148.2,170.8z"/>
		<path class="st16" d="M161.8,247.4c0,0-7.1,47.9-11,65.9c-4.3,19.7-27.2,84.7-27.2,84.7l-11.2-2.4c0,0,14.4-53,18-80.5
			c1.4-10.7,3.1-28,5.2-42.4c2.1-14,4.6-25.2,4.6-25.2H161.8z"/>
		<path class="st7" d="M126.2,394.2c0,0-2.1,4.1-2.1,4.1l-12.6-2.7l1.1-3.8L126.2,394.2z"/>
		<path class="st26" d="M126.2,394.2c0,0-2.1,4.1-2.1,4.1l-12.6-2.7l1.1-3.8L126.2,394.2z"/>
		<path class="st15" d="M157.3,264.5c-8.2,1.6-7.4,32.3-6.4,48.1c2.4-11.2,5.8-32.6,8.2-47.9C158.6,264.4,158,264.4,157.3,264.5z"/>
		<path class="st16" d="M173.7,247.4c0,0,3.3,46.9,2.7,66c-0.7,19.9-10.1,85-10.1,85h-10.6c0,0-0.4-64-0.9-83.5
			c-0.5-21.3-3.1-67.5-3.1-67.5H173.7z"/>
		<path class="st7" d="M168.3,394.2c0,0-0.6,4.4-0.6,4.4h-12.9l-0.3-3.9L168.3,394.2z"/>
		<path class="st26" d="M168.3,394.2c0,0-0.6,4.4-0.6,4.4h-12.9l-0.3-3.9L168.3,394.2z"/>
		<path class="st16" d="M169.4,202c0,12.6,6.7,17.8,6.7,17.8l10.9-10.6c0,0-3.7-6.4-8.8-12.2C171.9,189.7,169.4,193.9,169.4,202z"/>
		<path class="st17" d="M166.5,178.2c-0.3,0.8-1,2.1-2.8,2.6c-2.7,0.8-2.7,3-2.7,3l0,0C163.6,183.1,165.7,181,166.5,178.2z"/>
		<path class="st16" d="M163.7,158.8c2.2-2.8-1.2-3-1.2-3c0.9-3.4-3.1-1.6-3.1-1.6c-2.4-3.3-3.8,0.7-3.8,0.7c-2.5-2.8-3,1.8-3,1.8
			c-2.5-3.6-3.8,1.6-3.8,1.6c-2.3-3.7-3.7,1.1-3.7,1.1c-4.8-1.7-2.5,3.3-2.5,3.3c-4.1,0.1-0.8,3.3-0.8,3.3c-4.9,0-0.6,2.8-0.6,2.8
			c-3.9,2.6,1,3.2,1,3.2c-3.2,5,2.3,3.1,2.3,3.1c-2.2,4.9,2.7,2.7,2.7,2.7c-0.3,4.7,2.4,3.4,3.7,2.6c0.3,1,0.7,2,1.6,2.1
			c1.7,0.2,2-3,2-3s1.6,1.2,2.9,0.6c1.3-0.7,0.8-2.4,0.8-2.4s1,0.8,1.9,0c0.6-0.4,0.6-3.6-0.2-4.7l2.6-1c0,0,1.9-0.3,1.1-2.8
			c-0.9-2.5-0.1-4.6-0.1-4.6c2.9-1.4,0.5-3,0.5-3C167.5,159.5,163.7,158.8,163.7,158.8z"/>
		<path class="st22" d="M158.4,171c0.4,1.6,1.4,2.9,2.5,3.7c1.6,1.2,2.9,0,2.7-1.8c-0.1-1.7-1.1-4.3-2.9-4.8
			C159,167.7,158,169.2,158.4,171z"/>
	</g>
</g>
</svg>
